<mxfile host="Electron" agent="Mozilla/5.0 (Windows NT 10.0; Win64; x64) AppleWebKit/537.36 (KHTML, like Gecko) draw.io/24.7.8 Chrome/128.0.6613.36 Electron/32.0.1 Safari/537.36" version="24.7.8">
  <diagram name="Página-1" id="jM7lxEKWj-UprXVMMiSj">
    <mxGraphModel dx="1717" dy="428" grid="1" gridSize="10" guides="1" tooltips="1" connect="1" arrows="1" fold="1" page="1" pageScale="1" pageWidth="827" pageHeight="1169" math="0" shadow="0">
      <root>
        <mxCell id="0" />
        <mxCell id="1" parent="0" />
        <mxCell id="xkcgRxBu76btitXjiLDg-1" value="&lt;b&gt;&lt;font style=&quot;font-size: 16px;&quot;&gt;HOTELES&lt;/font&gt;&lt;/b&gt;&lt;div&gt;&lt;span style=&quot;font-size: 16px;&quot;&gt;&lt;b&gt;&lt;br&gt;&lt;/b&gt;&lt;/span&gt;&lt;u&gt;Nº de País&lt;br&gt;&lt;/u&gt;Nombre del país&lt;br&gt;&lt;u&gt;Nº de ciudad&lt;br&gt;&lt;/u&gt;Nombre de ciudad&lt;br&gt;&lt;u&gt;Nº de zona&lt;br&gt;&lt;/u&gt;Nombre de zona&lt;br&gt;&lt;u&gt;Nº de hotel&lt;br&gt;&lt;/u&gt;Nombre del hotel&lt;br&gt;Dirección del hotel&lt;br&gt;Cod. de categoría&lt;br&gt;Descripción de categoría&lt;br&gt;Facilidades ofrecidas por el hotel *(0, n)&lt;br&gt;&lt;span style=&quot;white-space: pre;&quot;&gt;&#x9;&lt;/span&gt;Cod. Facilidad&lt;br&gt;&lt;span style=&quot;white-space: pre;&quot;&gt;&#x9;&lt;/span&gt;Descrip. Facilidad&lt;br&gt;Habitaciones *(1,n)&lt;br&gt;&lt;span style=&quot;white-space: pre;&quot;&gt;&#x9;&lt;/span&gt;Nº de habitación&lt;br&gt;&lt;span style=&quot;white-space: pre;&quot;&gt;&#x9;&lt;/span&gt;Cod. Tipo de Habitación&lt;br&gt;&lt;span style=&quot;white-space: pre;&quot;&gt;&#x9;&lt;/span&gt;Descrip. Tipo de habitación&lt;br&gt;&lt;span style=&quot;white-space: pre;&quot;&gt;&#x9;&lt;/span&gt;Precio básico de la habitación&lt;br&gt;&lt;span style=&quot;white-space: pre;&quot;&gt;&#x9;&lt;/span&gt;Diferencial por temporada alta *(1,n)&lt;br&gt;&lt;span style=&quot;white-space: pre;&quot;&gt;&#x9;&lt;/span&gt;&lt;span style=&quot;white-space: pre;&quot;&gt;&#x9;&lt;/span&gt;Cod. período&lt;br&gt;&lt;span style=&quot;white-space: pre;&quot;&gt;&#x9;&lt;/span&gt;&lt;span style=&quot;white-space: pre;&quot;&gt;&#x9;&lt;/span&gt;Nombre del período&lt;br&gt;&lt;span style=&quot;white-space: pre;&quot;&gt;&#x9;&lt;/span&gt;&lt;span style=&quot;white-space: pre;&quot;&gt;&#x9;&lt;/span&gt;Porc. de ajuste&lt;br&gt;&lt;span style=&quot;white-space: pre;&quot;&gt;&#x9;&lt;/span&gt;Disponibilidad *(1,365)&lt;br&gt;&lt;span style=&quot;white-space: pre;&quot;&gt;&#x9;&lt;/span&gt;&lt;span style=&quot;white-space: pre;&quot;&gt;&#x9;&lt;/span&gt;Mes&lt;br&gt;&lt;span style=&quot;white-space: pre;&quot;&gt;&#x9;&lt;/span&gt;&lt;span style=&quot;white-space: pre;&quot;&gt;&#x9;&lt;/span&gt;Día&lt;br&gt;&lt;span style=&quot;white-space: pre;&quot;&gt;&#x9;&lt;/span&gt;&lt;span style=&quot;white-space: pre;&quot;&gt;&#x9;&lt;/span&gt;Estado de la habitación (Reservada, Ocupada, Libre, en Mantenimiento)&lt;/div&gt;" style="text;html=1;align=left;verticalAlign=middle;whiteSpace=wrap;rounded=0;" parent="1" vertex="1">
          <mxGeometry x="11" y="100" width="459" height="450" as="geometry" />
        </mxCell>
        <mxCell id="xkcgRxBu76btitXjiLDg-2" value="MODELO DE DATOS" style="text;html=1;align=center;verticalAlign=middle;whiteSpace=wrap;rounded=0;fontStyle=1;fontSize=17;" parent="1" vertex="1">
          <mxGeometry x="280" y="40" width="170" height="30" as="geometry" />
        </mxCell>
        <mxCell id="xkcgRxBu76btitXjiLDg-3" value="&lt;div&gt;&lt;b&gt;&lt;font style=&quot;font-size: 14px;&quot;&gt;Aclaraciones&lt;/font&gt;&lt;/b&gt;:&lt;/div&gt;&lt;div&gt;&lt;br&gt;&lt;/div&gt;- La categoría de hoteles (0 a 6 estrellas) y el nº de país es internacional&lt;br&gt;- El nº de hotel solo es único dentro de una zona de una determinada ciudad, de un determinado país&lt;br&gt;- Las facilidades ofrecidas están codificadas internacionalmente (traslado al aeropuerto, accesibiidad, pileta, etc.)&lt;br&gt;- Los tipos de habitación están codificadas internacionalmente (individual, doble, estudio, suite etc.)&lt;br&gt;- Los períodos donde el precio básico de la habitación cambia, están codificados internacionalmente (Semana Santa, Fin de año, temporada de esquí, eventos específicos como congresos o torneos, etc.)" style="text;html=1;align=left;verticalAlign=middle;whiteSpace=wrap;rounded=0;" parent="1" vertex="1">
          <mxGeometry x="40" y="570" width="700" height="150" as="geometry" />
        </mxCell>
        <mxCell id="qDECoY2A0RhCStAklAK_-1" value="&lt;b&gt;&lt;font style=&quot;font-size: 18px;&quot;&gt;PRIMERA FORMA NORMAL&lt;/font&gt;&lt;/b&gt;" style="text;html=1;align=center;verticalAlign=middle;whiteSpace=wrap;rounded=0;" parent="1" vertex="1">
          <mxGeometry x="340" y="790" width="280" height="30" as="geometry" />
        </mxCell>
        <mxCell id="qDECoY2A0RhCStAklAK_-2" value="Hoteles" style="swimlane;fontStyle=0;childLayout=stackLayout;horizontal=1;startSize=26;horizontalStack=0;resizeParent=1;resizeParentMax=0;resizeLast=0;collapsible=1;marginBottom=0;align=center;fontSize=14;" parent="1" vertex="1">
          <mxGeometry x="120" y="840" width="160" height="356" as="geometry" />
        </mxCell>
        <mxCell id="qDECoY2A0RhCStAklAK_-3" value="&lt;u&gt;Nº de País&lt;/u&gt;&lt;div&gt;&lt;br&gt;&lt;/div&gt;" style="text;strokeColor=none;fillColor=none;spacingLeft=4;spacingRight=4;overflow=hidden;rotatable=0;points=[[0,0.5],[1,0.5]];portConstraint=eastwest;fontSize=12;whiteSpace=wrap;html=1;" parent="qDECoY2A0RhCStAklAK_-2" vertex="1">
          <mxGeometry y="26" width="160" height="30" as="geometry" />
        </mxCell>
        <mxCell id="qDECoY2A0RhCStAklAK_-4" value="Nombre del país&lt;div&gt;&lt;br/&gt;&lt;/div&gt;" style="text;strokeColor=none;fillColor=none;spacingLeft=4;spacingRight=4;overflow=hidden;rotatable=0;points=[[0,0.5],[1,0.5]];portConstraint=eastwest;fontSize=12;whiteSpace=wrap;html=1;" parent="qDECoY2A0RhCStAklAK_-2" vertex="1">
          <mxGeometry y="56" width="160" height="30" as="geometry" />
        </mxCell>
        <mxCell id="qDECoY2A0RhCStAklAK_-5" value="&lt;u&gt;Nº de ciudad&lt;/u&gt;&lt;div&gt;&lt;br&gt;&lt;/div&gt;" style="text;strokeColor=none;fillColor=none;spacingLeft=4;spacingRight=4;overflow=hidden;rotatable=0;points=[[0,0.5],[1,0.5]];portConstraint=eastwest;fontSize=12;whiteSpace=wrap;html=1;" parent="qDECoY2A0RhCStAklAK_-2" vertex="1">
          <mxGeometry y="86" width="160" height="30" as="geometry" />
        </mxCell>
        <mxCell id="qDECoY2A0RhCStAklAK_-6" value="Nombre de ciudad&lt;div&gt;&lt;br/&gt;&lt;/div&gt;" style="text;strokeColor=none;fillColor=none;spacingLeft=4;spacingRight=4;overflow=hidden;rotatable=0;points=[[0,0.5],[1,0.5]];portConstraint=eastwest;fontSize=12;whiteSpace=wrap;html=1;" parent="qDECoY2A0RhCStAklAK_-2" vertex="1">
          <mxGeometry y="116" width="160" height="30" as="geometry" />
        </mxCell>
        <mxCell id="qDECoY2A0RhCStAklAK_-7" value="&lt;u&gt;Nº de zona&lt;/u&gt;&lt;div&gt;&lt;br&gt;&lt;/div&gt;" style="text;strokeColor=none;fillColor=none;spacingLeft=4;spacingRight=4;overflow=hidden;rotatable=0;points=[[0,0.5],[1,0.5]];portConstraint=eastwest;fontSize=12;whiteSpace=wrap;html=1;" parent="qDECoY2A0RhCStAklAK_-2" vertex="1">
          <mxGeometry y="146" width="160" height="30" as="geometry" />
        </mxCell>
        <mxCell id="qDECoY2A0RhCStAklAK_-8" value="Nombre de zona&lt;div&gt;&lt;br/&gt;&lt;/div&gt;" style="text;strokeColor=none;fillColor=none;spacingLeft=4;spacingRight=4;overflow=hidden;rotatable=0;points=[[0,0.5],[1,0.5]];portConstraint=eastwest;fontSize=12;whiteSpace=wrap;html=1;" parent="qDECoY2A0RhCStAklAK_-2" vertex="1">
          <mxGeometry y="176" width="160" height="30" as="geometry" />
        </mxCell>
        <mxCell id="qDECoY2A0RhCStAklAK_-9" value="&lt;u&gt;Nº de hotel&lt;/u&gt;&lt;div&gt;&lt;br&gt;&lt;/div&gt;" style="text;strokeColor=none;fillColor=none;spacingLeft=4;spacingRight=4;overflow=hidden;rotatable=0;points=[[0,0.5],[1,0.5]];portConstraint=eastwest;fontSize=12;whiteSpace=wrap;html=1;" parent="qDECoY2A0RhCStAklAK_-2" vertex="1">
          <mxGeometry y="206" width="160" height="30" as="geometry" />
        </mxCell>
        <mxCell id="qDECoY2A0RhCStAklAK_-10" value="Nombre del hotel&lt;div&gt;&lt;br/&gt;&lt;/div&gt;" style="text;strokeColor=none;fillColor=none;spacingLeft=4;spacingRight=4;overflow=hidden;rotatable=0;points=[[0,0.5],[1,0.5]];portConstraint=eastwest;fontSize=12;whiteSpace=wrap;html=1;" parent="qDECoY2A0RhCStAklAK_-2" vertex="1">
          <mxGeometry y="236" width="160" height="30" as="geometry" />
        </mxCell>
        <mxCell id="qDECoY2A0RhCStAklAK_-11" value="Dirección del hotel&lt;div&gt;&lt;br/&gt;&lt;/div&gt;" style="text;strokeColor=none;fillColor=none;spacingLeft=4;spacingRight=4;overflow=hidden;rotatable=0;points=[[0,0.5],[1,0.5]];portConstraint=eastwest;fontSize=12;whiteSpace=wrap;html=1;" parent="qDECoY2A0RhCStAklAK_-2" vertex="1">
          <mxGeometry y="266" width="160" height="30" as="geometry" />
        </mxCell>
        <mxCell id="qDECoY2A0RhCStAklAK_-12" value="Cod. de categoría&lt;div&gt;&lt;br/&gt;&lt;/div&gt;" style="text;strokeColor=none;fillColor=none;spacingLeft=4;spacingRight=4;overflow=hidden;rotatable=0;points=[[0,0.5],[1,0.5]];portConstraint=eastwest;fontSize=12;whiteSpace=wrap;html=1;" parent="qDECoY2A0RhCStAklAK_-2" vertex="1">
          <mxGeometry y="296" width="160" height="30" as="geometry" />
        </mxCell>
        <mxCell id="qDECoY2A0RhCStAklAK_-13" value="Descripción de categoría&lt;div&gt;&lt;br/&gt;&lt;/div&gt;" style="text;strokeColor=none;fillColor=none;spacingLeft=4;spacingRight=4;overflow=hidden;rotatable=0;points=[[0,0.5],[1,0.5]];portConstraint=eastwest;fontSize=12;whiteSpace=wrap;html=1;" parent="qDECoY2A0RhCStAklAK_-2" vertex="1">
          <mxGeometry y="326" width="160" height="30" as="geometry" />
        </mxCell>
        <mxCell id="0_xm6hFW7SZY7vTAGGuC-1" value="Facilidades" style="swimlane;fontStyle=0;childLayout=stackLayout;horizontal=1;startSize=26;horizontalStack=0;resizeParent=1;resizeParentMax=0;resizeLast=0;collapsible=1;marginBottom=0;align=center;fontSize=14;" parent="1" vertex="1">
          <mxGeometry x="320" y="840" width="160" height="210" as="geometry" />
        </mxCell>
        <mxCell id="0_xm6hFW7SZY7vTAGGuC-2" value="&lt;u&gt;Nº de País&lt;/u&gt;&lt;div&gt;&lt;br&gt;&lt;/div&gt;" style="text;strokeColor=none;fillColor=none;spacingLeft=4;spacingRight=4;overflow=hidden;rotatable=0;points=[[0,0.5],[1,0.5]];portConstraint=eastwest;fontSize=12;whiteSpace=wrap;html=1;" parent="0_xm6hFW7SZY7vTAGGuC-1" vertex="1">
          <mxGeometry y="26" width="160" height="30" as="geometry" />
        </mxCell>
        <mxCell id="0_xm6hFW7SZY7vTAGGuC-3" value="&lt;u&gt;Nº de ciudad&lt;/u&gt;&lt;div&gt;&lt;br&gt;&lt;/div&gt;" style="text;strokeColor=none;fillColor=none;spacingLeft=4;spacingRight=4;overflow=hidden;rotatable=0;points=[[0,0.5],[1,0.5]];portConstraint=eastwest;fontSize=12;whiteSpace=wrap;html=1;" parent="0_xm6hFW7SZY7vTAGGuC-1" vertex="1">
          <mxGeometry y="56" width="160" height="30" as="geometry" />
        </mxCell>
        <mxCell id="0_xm6hFW7SZY7vTAGGuC-4" value="&lt;u&gt;Nº de zona&lt;/u&gt;&lt;div&gt;&lt;br&gt;&lt;/div&gt;" style="text;strokeColor=none;fillColor=none;spacingLeft=4;spacingRight=4;overflow=hidden;rotatable=0;points=[[0,0.5],[1,0.5]];portConstraint=eastwest;fontSize=12;whiteSpace=wrap;html=1;" parent="0_xm6hFW7SZY7vTAGGuC-1" vertex="1">
          <mxGeometry y="86" width="160" height="30" as="geometry" />
        </mxCell>
        <mxCell id="0_xm6hFW7SZY7vTAGGuC-5" value="&lt;u&gt;Nº de hotel&lt;/u&gt;&lt;div&gt;&lt;br&gt;&lt;/div&gt;" style="text;strokeColor=none;fillColor=none;spacingLeft=4;spacingRight=4;overflow=hidden;rotatable=0;points=[[0,0.5],[1,0.5]];portConstraint=eastwest;fontSize=12;whiteSpace=wrap;html=1;" parent="0_xm6hFW7SZY7vTAGGuC-1" vertex="1">
          <mxGeometry y="116" width="160" height="30" as="geometry" />
        </mxCell>
        <mxCell id="0_xm6hFW7SZY7vTAGGuC-6" value="&lt;div&gt;&lt;u&gt;Cod facilidad&lt;/u&gt;&lt;/div&gt;" style="text;strokeColor=none;fillColor=none;spacingLeft=4;spacingRight=4;overflow=hidden;rotatable=0;points=[[0,0.5],[1,0.5]];portConstraint=eastwest;fontSize=12;whiteSpace=wrap;html=1;" parent="0_xm6hFW7SZY7vTAGGuC-1" vertex="1">
          <mxGeometry y="146" width="160" height="34" as="geometry" />
        </mxCell>
        <mxCell id="0_xm6hFW7SZY7vTAGGuC-7" value="&lt;div&gt;Descrip. Facilidad&lt;br/&gt;&lt;/div&gt;" style="text;strokeColor=none;fillColor=none;spacingLeft=4;spacingRight=4;overflow=hidden;rotatable=0;points=[[0,0.5],[1,0.5]];portConstraint=eastwest;fontSize=12;whiteSpace=wrap;html=1;" parent="0_xm6hFW7SZY7vTAGGuC-1" vertex="1">
          <mxGeometry y="180" width="160" height="30" as="geometry" />
        </mxCell>
        <mxCell id="tslXTPR5O2dZaiBsaS7V-1" value="Habitaciones" style="swimlane;fontStyle=0;childLayout=stackLayout;horizontal=1;startSize=26;horizontalStack=0;resizeParent=1;resizeParentMax=0;resizeLast=0;collapsible=1;marginBottom=0;align=center;fontSize=14;" parent="1" vertex="1">
          <mxGeometry x="520" y="840" width="160" height="270" as="geometry" />
        </mxCell>
        <mxCell id="tslXTPR5O2dZaiBsaS7V-3" value="&lt;div&gt;&lt;u&gt;Nº de País&lt;/u&gt;&lt;div&gt;&lt;br&gt;&lt;/div&gt;&lt;/div&gt;" style="text;strokeColor=none;fillColor=none;spacingLeft=4;spacingRight=4;overflow=hidden;rotatable=0;points=[[0,0.5],[1,0.5]];portConstraint=eastwest;fontSize=12;whiteSpace=wrap;html=1;" parent="tslXTPR5O2dZaiBsaS7V-1" vertex="1">
          <mxGeometry y="26" width="160" height="30" as="geometry" />
        </mxCell>
        <mxCell id="tslXTPR5O2dZaiBsaS7V-4" value="&lt;div&gt;&lt;u&gt;Nº de ciudad&lt;/u&gt;&lt;div&gt;&lt;br&gt;&lt;/div&gt;&lt;/div&gt;" style="text;strokeColor=none;fillColor=none;spacingLeft=4;spacingRight=4;overflow=hidden;rotatable=0;points=[[0,0.5],[1,0.5]];portConstraint=eastwest;fontSize=12;whiteSpace=wrap;html=1;" parent="tslXTPR5O2dZaiBsaS7V-1" vertex="1">
          <mxGeometry y="56" width="160" height="30" as="geometry" />
        </mxCell>
        <mxCell id="tslXTPR5O2dZaiBsaS7V-5" value="&lt;div&gt;&lt;u&gt;Nº de zona&lt;/u&gt;&lt;div&gt;&lt;br&gt;&lt;/div&gt;&lt;/div&gt;" style="text;strokeColor=none;fillColor=none;spacingLeft=4;spacingRight=4;overflow=hidden;rotatable=0;points=[[0,0.5],[1,0.5]];portConstraint=eastwest;fontSize=12;whiteSpace=wrap;html=1;" parent="tslXTPR5O2dZaiBsaS7V-1" vertex="1">
          <mxGeometry y="86" width="160" height="30" as="geometry" />
        </mxCell>
        <mxCell id="tslXTPR5O2dZaiBsaS7V-6" value="&lt;u&gt;Nº de hotel&lt;/u&gt;&lt;div&gt;&lt;br&gt;&lt;/div&gt;" style="text;strokeColor=none;fillColor=none;spacingLeft=4;spacingRight=4;overflow=hidden;rotatable=0;points=[[0,0.5],[1,0.5]];portConstraint=eastwest;fontSize=12;whiteSpace=wrap;html=1;" parent="tslXTPR5O2dZaiBsaS7V-1" vertex="1">
          <mxGeometry y="116" width="160" height="34" as="geometry" />
        </mxCell>
        <mxCell id="tslXTPR5O2dZaiBsaS7V-7" value="Nº de habitación" style="text;strokeColor=none;fillColor=none;spacingLeft=4;spacingRight=4;overflow=hidden;rotatable=0;points=[[0,0.5],[1,0.5]];portConstraint=eastwest;fontSize=12;whiteSpace=wrap;html=1;fontStyle=4" parent="tslXTPR5O2dZaiBsaS7V-1" vertex="1">
          <mxGeometry y="150" width="160" height="30" as="geometry" />
        </mxCell>
        <mxCell id="tslXTPR5O2dZaiBsaS7V-10" value="Cod. Tipo Habitacion" style="text;strokeColor=none;fillColor=none;spacingLeft=4;spacingRight=4;overflow=hidden;rotatable=0;points=[[0,0.5],[1,0.5]];portConstraint=eastwest;fontSize=12;whiteSpace=wrap;html=1;" parent="tslXTPR5O2dZaiBsaS7V-1" vertex="1">
          <mxGeometry y="180" width="160" height="30" as="geometry" />
        </mxCell>
        <mxCell id="tslXTPR5O2dZaiBsaS7V-8" value="Descrip. Tipo de habitación" style="text;strokeColor=none;fillColor=none;spacingLeft=4;spacingRight=4;overflow=hidden;rotatable=0;points=[[0,0.5],[1,0.5]];portConstraint=eastwest;fontSize=12;whiteSpace=wrap;html=1;" parent="tslXTPR5O2dZaiBsaS7V-1" vertex="1">
          <mxGeometry y="210" width="160" height="30" as="geometry" />
        </mxCell>
        <mxCell id="tslXTPR5O2dZaiBsaS7V-9" value="&lt;font style=&quot;font-size: 11px;&quot;&gt;Precio básico de la habitación&lt;/font&gt;" style="text;strokeColor=none;fillColor=none;spacingLeft=4;spacingRight=4;overflow=hidden;rotatable=0;points=[[0,0.5],[1,0.5]];portConstraint=eastwest;fontSize=12;whiteSpace=wrap;html=1;align=left;" parent="tslXTPR5O2dZaiBsaS7V-1" vertex="1">
          <mxGeometry y="240" width="160" height="30" as="geometry" />
        </mxCell>
        <mxCell id="rYhlFkUklF-xNKJSXs77-1" value="Diferencial por&#xa;temporada alta" style="swimlane;fontStyle=0;childLayout=stackLayout;horizontal=1;startSize=40;horizontalStack=0;resizeParent=1;resizeParentMax=0;resizeLast=0;collapsible=1;marginBottom=0;align=center;fontSize=14;" parent="1" vertex="1">
          <mxGeometry x="710" y="1504" width="160" height="250" as="geometry" />
        </mxCell>
        <mxCell id="rYhlFkUklF-xNKJSXs77-2" value="&lt;u&gt;Nº de País&lt;/u&gt;&lt;div&gt;&lt;br&gt;&lt;/div&gt;" style="text;strokeColor=none;fillColor=none;spacingLeft=4;spacingRight=4;overflow=hidden;rotatable=0;points=[[0,0.5],[1,0.5]];portConstraint=eastwest;fontSize=12;whiteSpace=wrap;html=1;" parent="rYhlFkUklF-xNKJSXs77-1" vertex="1">
          <mxGeometry y="40" width="160" height="30" as="geometry" />
        </mxCell>
        <mxCell id="rYhlFkUklF-xNKJSXs77-3" value="&lt;div&gt;&lt;u&gt;Nº de ciudad&lt;/u&gt;&lt;div&gt;&lt;br&gt;&lt;/div&gt;&lt;/div&gt;" style="text;strokeColor=none;fillColor=none;spacingLeft=4;spacingRight=4;overflow=hidden;rotatable=0;points=[[0,0.5],[1,0.5]];portConstraint=eastwest;fontSize=12;whiteSpace=wrap;html=1;" parent="rYhlFkUklF-xNKJSXs77-1" vertex="1">
          <mxGeometry y="70" width="160" height="30" as="geometry" />
        </mxCell>
        <mxCell id="rYhlFkUklF-xNKJSXs77-4" value="&lt;div&gt;&lt;u&gt;Nº de zona&lt;/u&gt;&lt;div&gt;&lt;br&gt;&lt;/div&gt;&lt;/div&gt;" style="text;strokeColor=none;fillColor=none;spacingLeft=4;spacingRight=4;overflow=hidden;rotatable=0;points=[[0,0.5],[1,0.5]];portConstraint=eastwest;fontSize=12;whiteSpace=wrap;html=1;" parent="rYhlFkUklF-xNKJSXs77-1" vertex="1">
          <mxGeometry y="100" width="160" height="30" as="geometry" />
        </mxCell>
        <mxCell id="rYhlFkUklF-xNKJSXs77-5" value="&lt;div&gt;&lt;u&gt;Nº de hotel&lt;/u&gt;&lt;div&gt;&lt;br&gt;&lt;/div&gt;&lt;/div&gt;" style="text;strokeColor=none;fillColor=none;spacingLeft=4;spacingRight=4;overflow=hidden;rotatable=0;points=[[0,0.5],[1,0.5]];portConstraint=eastwest;fontSize=12;whiteSpace=wrap;html=1;" parent="rYhlFkUklF-xNKJSXs77-1" vertex="1">
          <mxGeometry y="130" width="160" height="30" as="geometry" />
        </mxCell>
        <mxCell id="-9xxhdU6zpW5x84kb3Ga-1" value="&lt;span style=&quot;text-decoration-line: underline;&quot;&gt;Nº de habitación&lt;/span&gt;" style="text;strokeColor=none;fillColor=none;spacingLeft=4;spacingRight=4;overflow=hidden;rotatable=0;points=[[0,0.5],[1,0.5]];portConstraint=eastwest;fontSize=12;whiteSpace=wrap;html=1;" parent="rYhlFkUklF-xNKJSXs77-1" vertex="1">
          <mxGeometry y="160" width="160" height="30" as="geometry" />
        </mxCell>
        <mxCell id="rYhlFkUklF-xNKJSXs77-6" value="&lt;u&gt;Cod. período&amp;nbsp;&lt;/u&gt;" style="text;strokeColor=none;fillColor=none;spacingLeft=4;spacingRight=4;overflow=hidden;rotatable=0;points=[[0,0.5],[1,0.5]];portConstraint=eastwest;fontSize=12;whiteSpace=wrap;html=1;" parent="rYhlFkUklF-xNKJSXs77-1" vertex="1">
          <mxGeometry y="190" width="160" height="30" as="geometry" />
        </mxCell>
        <mxCell id="DPNmPtZTHY25Sw5-x1fM-11" value="Porc. de ajuste&lt;div&gt;&lt;br/&gt;&lt;/div&gt;" style="text;strokeColor=none;fillColor=none;spacingLeft=4;spacingRight=4;overflow=hidden;rotatable=0;points=[[0,0.5],[1,0.5]];portConstraint=eastwest;fontSize=12;whiteSpace=wrap;html=1;" parent="rYhlFkUklF-xNKJSXs77-1" vertex="1">
          <mxGeometry y="220" width="160" height="30" as="geometry" />
        </mxCell>
        <mxCell id="rYhlFkUklF-xNKJSXs77-16" value="Disponibilidad" style="swimlane;fontStyle=0;childLayout=stackLayout;horizontal=1;startSize=26;horizontalStack=0;resizeParent=1;resizeParentMax=0;resizeLast=0;collapsible=1;marginBottom=0;align=center;fontSize=14;" parent="1" vertex="1">
          <mxGeometry x="520" y="1120" width="160" height="270" as="geometry" />
        </mxCell>
        <mxCell id="rYhlFkUklF-xNKJSXs77-17" value="&lt;div&gt;&lt;u&gt;Nº de País&lt;/u&gt;&lt;div&gt;&lt;br&gt;&lt;/div&gt;&lt;/div&gt;" style="text;strokeColor=none;fillColor=none;spacingLeft=4;spacingRight=4;overflow=hidden;rotatable=0;points=[[0,0.5],[1,0.5]];portConstraint=eastwest;fontSize=12;whiteSpace=wrap;html=1;" parent="rYhlFkUklF-xNKJSXs77-16" vertex="1">
          <mxGeometry y="26" width="160" height="30" as="geometry" />
        </mxCell>
        <mxCell id="rYhlFkUklF-xNKJSXs77-18" value="&lt;div&gt;&lt;u&gt;Nº de ciudad&lt;/u&gt;&lt;div&gt;&lt;br&gt;&lt;/div&gt;&lt;/div&gt;" style="text;strokeColor=none;fillColor=none;spacingLeft=4;spacingRight=4;overflow=hidden;rotatable=0;points=[[0,0.5],[1,0.5]];portConstraint=eastwest;fontSize=12;whiteSpace=wrap;html=1;" parent="rYhlFkUklF-xNKJSXs77-16" vertex="1">
          <mxGeometry y="56" width="160" height="30" as="geometry" />
        </mxCell>
        <mxCell id="rYhlFkUklF-xNKJSXs77-19" value="&lt;div&gt;&lt;u&gt;Nº de zona&lt;/u&gt;&lt;div&gt;&lt;br&gt;&lt;/div&gt;&lt;/div&gt;" style="text;strokeColor=none;fillColor=none;spacingLeft=4;spacingRight=4;overflow=hidden;rotatable=0;points=[[0,0.5],[1,0.5]];portConstraint=eastwest;fontSize=12;whiteSpace=wrap;html=1;" parent="rYhlFkUklF-xNKJSXs77-16" vertex="1">
          <mxGeometry y="86" width="160" height="30" as="geometry" />
        </mxCell>
        <mxCell id="rYhlFkUklF-xNKJSXs77-20" value="&lt;u&gt;Nº de hotel&lt;/u&gt;&lt;div&gt;&lt;br&gt;&lt;/div&gt;" style="text;strokeColor=none;fillColor=none;spacingLeft=4;spacingRight=4;overflow=hidden;rotatable=0;points=[[0,0.5],[1,0.5]];portConstraint=eastwest;fontSize=12;whiteSpace=wrap;html=1;" parent="rYhlFkUklF-xNKJSXs77-16" vertex="1">
          <mxGeometry y="116" width="160" height="34" as="geometry" />
        </mxCell>
        <mxCell id="rYhlFkUklF-xNKJSXs77-21" value="Nº de habitación" style="text;strokeColor=none;fillColor=none;spacingLeft=4;spacingRight=4;overflow=hidden;rotatable=0;points=[[0,0.5],[1,0.5]];portConstraint=eastwest;fontSize=12;whiteSpace=wrap;html=1;fontStyle=4" parent="rYhlFkUklF-xNKJSXs77-16" vertex="1">
          <mxGeometry y="150" width="160" height="30" as="geometry" />
        </mxCell>
        <mxCell id="rYhlFkUklF-xNKJSXs77-22" value="&lt;u&gt;Mes&lt;/u&gt;" style="text;strokeColor=none;fillColor=none;spacingLeft=4;spacingRight=4;overflow=hidden;rotatable=0;points=[[0,0.5],[1,0.5]];portConstraint=eastwest;fontSize=12;whiteSpace=wrap;html=1;" parent="rYhlFkUklF-xNKJSXs77-16" vertex="1">
          <mxGeometry y="180" width="160" height="30" as="geometry" />
        </mxCell>
        <mxCell id="rYhlFkUklF-xNKJSXs77-23" value="&lt;u&gt;Dia&lt;/u&gt;" style="text;strokeColor=none;fillColor=none;spacingLeft=4;spacingRight=4;overflow=hidden;rotatable=0;points=[[0,0.5],[1,0.5]];portConstraint=eastwest;fontSize=12;whiteSpace=wrap;html=1;" parent="rYhlFkUklF-xNKJSXs77-16" vertex="1">
          <mxGeometry y="210" width="160" height="30" as="geometry" />
        </mxCell>
        <mxCell id="rYhlFkUklF-xNKJSXs77-24" value="&lt;font style=&quot;font-size: 11px;&quot;&gt;Estado de la habitación&lt;/font&gt;" style="text;strokeColor=none;fillColor=none;spacingLeft=4;spacingRight=4;overflow=hidden;rotatable=0;points=[[0,0.5],[1,0.5]];portConstraint=eastwest;fontSize=12;whiteSpace=wrap;html=1;align=left;" parent="rYhlFkUklF-xNKJSXs77-16" vertex="1">
          <mxGeometry y="240" width="160" height="30" as="geometry" />
        </mxCell>
        <mxCell id="-9xxhdU6zpW5x84kb3Ga-2" value="&lt;b&gt;&lt;font style=&quot;font-size: 18px;&quot;&gt;SEGUNDA FORMA NORMAL&lt;/font&gt;&lt;/b&gt;" style="text;html=1;align=center;verticalAlign=middle;whiteSpace=wrap;rounded=0;" parent="1" vertex="1">
          <mxGeometry x="275" y="1480" width="280" height="30" as="geometry" />
        </mxCell>
        <mxCell id="-9xxhdU6zpW5x84kb3Ga-3" value="Paises" style="swimlane;fontStyle=0;childLayout=stackLayout;horizontal=1;startSize=26;horizontalStack=0;resizeParent=1;resizeParentMax=0;resizeLast=0;collapsible=1;marginBottom=0;align=center;fontSize=14;" parent="1" vertex="1">
          <mxGeometry x="154" y="1550" width="160" height="86" as="geometry" />
        </mxCell>
        <mxCell id="-9xxhdU6zpW5x84kb3Ga-4" value="&lt;u&gt;Nº de País&lt;/u&gt;" style="text;strokeColor=none;fillColor=none;spacingLeft=4;spacingRight=4;overflow=hidden;rotatable=0;points=[[0,0.5],[1,0.5]];portConstraint=eastwest;fontSize=12;whiteSpace=wrap;html=1;" parent="-9xxhdU6zpW5x84kb3Ga-3" vertex="1">
          <mxGeometry y="26" width="160" height="30" as="geometry" />
        </mxCell>
        <mxCell id="-9xxhdU6zpW5x84kb3Ga-5" value="Nombre del país" style="text;strokeColor=none;fillColor=none;spacingLeft=4;spacingRight=4;overflow=hidden;rotatable=0;points=[[0,0.5],[1,0.5]];portConstraint=eastwest;fontSize=12;whiteSpace=wrap;html=1;" parent="-9xxhdU6zpW5x84kb3Ga-3" vertex="1">
          <mxGeometry y="56" width="160" height="30" as="geometry" />
        </mxCell>
        <mxCell id="-9xxhdU6zpW5x84kb3Ga-7" value="Hoteles" style="swimlane;fontStyle=0;childLayout=stackLayout;horizontal=1;startSize=26;horizontalStack=0;resizeParent=1;resizeParentMax=0;resizeLast=0;collapsible=1;marginBottom=0;align=center;fontSize=14;" parent="1" vertex="1">
          <mxGeometry x="-36" y="1550" width="160" height="236" as="geometry" />
        </mxCell>
        <mxCell id="-9xxhdU6zpW5x84kb3Ga-8" value="&lt;u&gt;Nº de País&lt;/u&gt;&lt;div&gt;&lt;br&gt;&lt;/div&gt;" style="text;strokeColor=none;fillColor=none;spacingLeft=4;spacingRight=4;overflow=hidden;rotatable=0;points=[[0,0.5],[1,0.5]];portConstraint=eastwest;fontSize=12;whiteSpace=wrap;html=1;" parent="-9xxhdU6zpW5x84kb3Ga-7" vertex="1">
          <mxGeometry y="26" width="160" height="30" as="geometry" />
        </mxCell>
        <mxCell id="-9xxhdU6zpW5x84kb3Ga-10" value="&lt;u&gt;Nº de ciudad&lt;/u&gt;&lt;div&gt;&lt;br&gt;&lt;/div&gt;" style="text;strokeColor=none;fillColor=none;spacingLeft=4;spacingRight=4;overflow=hidden;rotatable=0;points=[[0,0.5],[1,0.5]];portConstraint=eastwest;fontSize=12;whiteSpace=wrap;html=1;" parent="-9xxhdU6zpW5x84kb3Ga-7" vertex="1">
          <mxGeometry y="56" width="160" height="30" as="geometry" />
        </mxCell>
        <mxCell id="-9xxhdU6zpW5x84kb3Ga-12" value="&lt;u&gt;Nº de zona&lt;/u&gt;&lt;div&gt;&lt;br&gt;&lt;/div&gt;" style="text;strokeColor=none;fillColor=none;spacingLeft=4;spacingRight=4;overflow=hidden;rotatable=0;points=[[0,0.5],[1,0.5]];portConstraint=eastwest;fontSize=12;whiteSpace=wrap;html=1;" parent="-9xxhdU6zpW5x84kb3Ga-7" vertex="1">
          <mxGeometry y="86" width="160" height="30" as="geometry" />
        </mxCell>
        <mxCell id="-9xxhdU6zpW5x84kb3Ga-14" value="&lt;u&gt;Nº de hotel&lt;/u&gt;&lt;div&gt;&lt;br&gt;&lt;/div&gt;" style="text;strokeColor=none;fillColor=none;spacingLeft=4;spacingRight=4;overflow=hidden;rotatable=0;points=[[0,0.5],[1,0.5]];portConstraint=eastwest;fontSize=12;whiteSpace=wrap;html=1;" parent="-9xxhdU6zpW5x84kb3Ga-7" vertex="1">
          <mxGeometry y="116" width="160" height="30" as="geometry" />
        </mxCell>
        <mxCell id="-9xxhdU6zpW5x84kb3Ga-15" value="Nombre del hotel&lt;div&gt;&lt;br/&gt;&lt;/div&gt;" style="text;strokeColor=none;fillColor=none;spacingLeft=4;spacingRight=4;overflow=hidden;rotatable=0;points=[[0,0.5],[1,0.5]];portConstraint=eastwest;fontSize=12;whiteSpace=wrap;html=1;" parent="-9xxhdU6zpW5x84kb3Ga-7" vertex="1">
          <mxGeometry y="146" width="160" height="30" as="geometry" />
        </mxCell>
        <mxCell id="-9xxhdU6zpW5x84kb3Ga-16" value="Dirección del hotel&lt;div&gt;&lt;br/&gt;&lt;/div&gt;" style="text;strokeColor=none;fillColor=none;spacingLeft=4;spacingRight=4;overflow=hidden;rotatable=0;points=[[0,0.5],[1,0.5]];portConstraint=eastwest;fontSize=12;whiteSpace=wrap;html=1;" parent="-9xxhdU6zpW5x84kb3Ga-7" vertex="1">
          <mxGeometry y="176" width="160" height="30" as="geometry" />
        </mxCell>
        <mxCell id="v8e6qSbVIkH8Y4p5ILKF-8" value="Cod. de categoría&lt;div&gt;&lt;br/&gt;&lt;/div&gt;" style="text;strokeColor=none;fillColor=none;spacingLeft=4;spacingRight=4;overflow=hidden;rotatable=0;points=[[0,0.5],[1,0.5]];portConstraint=eastwest;fontSize=12;whiteSpace=wrap;html=1;" parent="-9xxhdU6zpW5x84kb3Ga-7" vertex="1">
          <mxGeometry y="206" width="160" height="30" as="geometry" />
        </mxCell>
        <mxCell id="v8e6qSbVIkH8Y4p5ILKF-2" value="Categoria" style="swimlane;fontStyle=0;childLayout=stackLayout;horizontal=1;startSize=26;horizontalStack=0;resizeParent=1;resizeParentMax=0;resizeLast=0;collapsible=1;marginBottom=0;align=center;fontSize=14;" parent="1" vertex="1">
          <mxGeometry x="154" y="1652" width="160" height="86" as="geometry" />
        </mxCell>
        <mxCell id="v8e6qSbVIkH8Y4p5ILKF-6" value="Cod. de categoría&lt;div&gt;&lt;br&gt;&lt;/div&gt;" style="text;strokeColor=none;fillColor=none;spacingLeft=4;spacingRight=4;overflow=hidden;rotatable=0;points=[[0,0.5],[1,0.5]];portConstraint=eastwest;fontSize=12;whiteSpace=wrap;html=1;fontStyle=4" parent="v8e6qSbVIkH8Y4p5ILKF-2" vertex="1">
          <mxGeometry y="26" width="160" height="30" as="geometry" />
        </mxCell>
        <mxCell id="-9xxhdU6zpW5x84kb3Ga-18" value="Descripción de categoría&lt;div&gt;&lt;br/&gt;&lt;/div&gt;" style="text;strokeColor=none;fillColor=none;spacingLeft=4;spacingRight=4;overflow=hidden;rotatable=0;points=[[0,0.5],[1,0.5]];portConstraint=eastwest;fontSize=12;whiteSpace=wrap;html=1;" parent="v8e6qSbVIkH8Y4p5ILKF-2" vertex="1">
          <mxGeometry y="56" width="160" height="30" as="geometry" />
        </mxCell>
        <mxCell id="xGpMS7PiCY9Kp0agLqRa-15" value="Tipo Habitación" style="swimlane;fontStyle=0;childLayout=stackLayout;horizontal=1;startSize=26;horizontalStack=0;resizeParent=1;resizeParentMax=0;resizeLast=0;collapsible=1;marginBottom=0;align=center;fontSize=14;" parent="1" vertex="1">
          <mxGeometry x="154" y="1754" width="160" height="86" as="geometry" />
        </mxCell>
        <mxCell id="xGpMS7PiCY9Kp0agLqRa-21" value="&lt;u&gt;Cod. Tipo Habitacion&lt;/u&gt;" style="text;strokeColor=none;fillColor=none;spacingLeft=4;spacingRight=4;overflow=hidden;rotatable=0;points=[[0,0.5],[1,0.5]];portConstraint=eastwest;fontSize=12;whiteSpace=wrap;html=1;" parent="xGpMS7PiCY9Kp0agLqRa-15" vertex="1">
          <mxGeometry y="26" width="160" height="30" as="geometry" />
        </mxCell>
        <mxCell id="xGpMS7PiCY9Kp0agLqRa-22" value="Descrip. Tipo de habitación" style="text;strokeColor=none;fillColor=none;spacingLeft=4;spacingRight=4;overflow=hidden;rotatable=0;points=[[0,0.5],[1,0.5]];portConstraint=eastwest;fontSize=12;whiteSpace=wrap;html=1;" parent="xGpMS7PiCY9Kp0agLqRa-15" vertex="1">
          <mxGeometry y="56" width="160" height="30" as="geometry" />
        </mxCell>
        <mxCell id="MbrZLyEGOneWsTnm67x0-5" value="Ciudades" style="swimlane;fontStyle=0;childLayout=stackLayout;horizontal=1;startSize=26;horizontalStack=0;resizeParent=1;resizeParentMax=0;resizeLast=0;collapsible=1;marginBottom=0;align=center;fontSize=14;" parent="1" vertex="1">
          <mxGeometry x="349" y="1550" width="160" height="116" as="geometry" />
        </mxCell>
        <mxCell id="MbrZLyEGOneWsTnm67x0-7" value="&lt;u&gt;Nº de ciudad&lt;/u&gt;&lt;div&gt;&lt;br&gt;&lt;/div&gt;" style="text;strokeColor=none;fillColor=none;spacingLeft=4;spacingRight=4;overflow=hidden;rotatable=0;points=[[0,0.5],[1,0.5]];portConstraint=eastwest;fontSize=12;whiteSpace=wrap;html=1;" parent="MbrZLyEGOneWsTnm67x0-5" vertex="1">
          <mxGeometry y="26" width="160" height="30" as="geometry" />
        </mxCell>
        <mxCell id="MbrZLyEGOneWsTnm67x0-6" value="&lt;u&gt;Nº de País&lt;/u&gt;" style="text;strokeColor=none;fillColor=none;spacingLeft=4;spacingRight=4;overflow=hidden;rotatable=0;points=[[0,0.5],[1,0.5]];portConstraint=eastwest;fontSize=12;whiteSpace=wrap;html=1;" parent="MbrZLyEGOneWsTnm67x0-5" vertex="1">
          <mxGeometry y="56" width="160" height="30" as="geometry" />
        </mxCell>
        <mxCell id="MbrZLyEGOneWsTnm67x0-8" value="Nombre de ciudad&lt;div&gt;&lt;br&gt;&lt;/div&gt;" style="text;strokeColor=none;fillColor=none;spacingLeft=4;spacingRight=4;overflow=hidden;rotatable=0;points=[[0,0.5],[1,0.5]];portConstraint=eastwest;fontSize=12;whiteSpace=wrap;html=1;" parent="MbrZLyEGOneWsTnm67x0-5" vertex="1">
          <mxGeometry y="86" width="160" height="30" as="geometry" />
        </mxCell>
        <mxCell id="Xz4hlnODMBMm26LAJ6Bf-1" value="Zonas" style="swimlane;fontStyle=0;childLayout=stackLayout;horizontal=1;startSize=26;horizontalStack=0;resizeParent=1;resizeParentMax=0;resizeLast=0;collapsible=1;marginBottom=0;align=center;fontSize=14;" parent="1" vertex="1">
          <mxGeometry x="344" y="1680" width="160" height="146" as="geometry" />
        </mxCell>
        <mxCell id="Xz4hlnODMBMm26LAJ6Bf-2" value="&lt;u&gt;Nº de ciudad&lt;/u&gt;&lt;div&gt;&lt;br&gt;&lt;/div&gt;" style="text;strokeColor=none;fillColor=none;spacingLeft=4;spacingRight=4;overflow=hidden;rotatable=0;points=[[0,0.5],[1,0.5]];portConstraint=eastwest;fontSize=12;whiteSpace=wrap;html=1;" parent="Xz4hlnODMBMm26LAJ6Bf-1" vertex="1">
          <mxGeometry y="26" width="160" height="30" as="geometry" />
        </mxCell>
        <mxCell id="Xz4hlnODMBMm26LAJ6Bf-3" value="&lt;u&gt;Nº de País&lt;/u&gt;" style="text;strokeColor=none;fillColor=none;spacingLeft=4;spacingRight=4;overflow=hidden;rotatable=0;points=[[0,0.5],[1,0.5]];portConstraint=eastwest;fontSize=12;whiteSpace=wrap;html=1;" parent="Xz4hlnODMBMm26LAJ6Bf-1" vertex="1">
          <mxGeometry y="56" width="160" height="30" as="geometry" />
        </mxCell>
        <mxCell id="Xz4hlnODMBMm26LAJ6Bf-6" value="&lt;u&gt;Nº de zona&lt;/u&gt;&lt;div&gt;&lt;br&gt;&lt;/div&gt;" style="text;strokeColor=none;fillColor=none;spacingLeft=4;spacingRight=4;overflow=hidden;rotatable=0;points=[[0,0.5],[1,0.5]];portConstraint=eastwest;fontSize=12;whiteSpace=wrap;html=1;" parent="Xz4hlnODMBMm26LAJ6Bf-1" vertex="1">
          <mxGeometry y="86" width="160" height="30" as="geometry" />
        </mxCell>
        <mxCell id="Xz4hlnODMBMm26LAJ6Bf-4" value="Nombre de Zona&lt;div&gt;&lt;br&gt;&lt;/div&gt;" style="text;strokeColor=none;fillColor=none;spacingLeft=4;spacingRight=4;overflow=hidden;rotatable=0;points=[[0,0.5],[1,0.5]];portConstraint=eastwest;fontSize=12;whiteSpace=wrap;html=1;" parent="Xz4hlnODMBMm26LAJ6Bf-1" vertex="1">
          <mxGeometry y="116" width="160" height="30" as="geometry" />
        </mxCell>
        <mxCell id="YZ_iTIWEsLRAkcZD_jYd-1" value="Habitaciones" style="swimlane;fontStyle=0;childLayout=stackLayout;horizontal=1;startSize=26;horizontalStack=0;resizeParent=1;resizeParentMax=0;resizeLast=0;collapsible=1;marginBottom=0;align=center;fontSize=14;" parent="1" vertex="1">
          <mxGeometry x="-216" y="1550" width="160" height="240" as="geometry" />
        </mxCell>
        <mxCell id="fARBxSJzfrpjRsKB6P2Z-1" value="&lt;div&gt;&lt;u&gt;Nº de País&lt;/u&gt;&lt;div&gt;&lt;br&gt;&lt;/div&gt;&lt;/div&gt;" style="text;strokeColor=none;fillColor=none;spacingLeft=4;spacingRight=4;overflow=hidden;rotatable=0;points=[[0,0.5],[1,0.5]];portConstraint=eastwest;fontSize=12;whiteSpace=wrap;html=1;" parent="YZ_iTIWEsLRAkcZD_jYd-1" vertex="1">
          <mxGeometry y="26" width="160" height="30" as="geometry" />
        </mxCell>
        <mxCell id="fARBxSJzfrpjRsKB6P2Z-2" value="&lt;div&gt;&lt;u&gt;Nº de ciudad&lt;/u&gt;&lt;div&gt;&lt;br&gt;&lt;/div&gt;&lt;/div&gt;" style="text;strokeColor=none;fillColor=none;spacingLeft=4;spacingRight=4;overflow=hidden;rotatable=0;points=[[0,0.5],[1,0.5]];portConstraint=eastwest;fontSize=12;whiteSpace=wrap;html=1;" parent="YZ_iTIWEsLRAkcZD_jYd-1" vertex="1">
          <mxGeometry y="56" width="160" height="30" as="geometry" />
        </mxCell>
        <mxCell id="fARBxSJzfrpjRsKB6P2Z-3" value="&lt;div&gt;&lt;u&gt;Nº de zona&lt;/u&gt;&lt;div&gt;&lt;br&gt;&lt;/div&gt;&lt;/div&gt;" style="text;strokeColor=none;fillColor=none;spacingLeft=4;spacingRight=4;overflow=hidden;rotatable=0;points=[[0,0.5],[1,0.5]];portConstraint=eastwest;fontSize=12;whiteSpace=wrap;html=1;" parent="YZ_iTIWEsLRAkcZD_jYd-1" vertex="1">
          <mxGeometry y="86" width="160" height="30" as="geometry" />
        </mxCell>
        <mxCell id="YZ_iTIWEsLRAkcZD_jYd-5" value="Nº de hotel&lt;div&gt;&lt;br&gt;&lt;/div&gt;" style="text;strokeColor=none;fillColor=none;spacingLeft=4;spacingRight=4;overflow=hidden;rotatable=0;points=[[0,0.5],[1,0.5]];portConstraint=eastwest;fontSize=12;whiteSpace=wrap;html=1;fontStyle=4" parent="YZ_iTIWEsLRAkcZD_jYd-1" vertex="1">
          <mxGeometry y="116" width="160" height="34" as="geometry" />
        </mxCell>
        <mxCell id="YZ_iTIWEsLRAkcZD_jYd-6" value="Nº de habitación" style="text;strokeColor=none;fillColor=none;spacingLeft=4;spacingRight=4;overflow=hidden;rotatable=0;points=[[0,0.5],[1,0.5]];portConstraint=eastwest;fontSize=12;whiteSpace=wrap;html=1;fontStyle=4" parent="YZ_iTIWEsLRAkcZD_jYd-1" vertex="1">
          <mxGeometry y="150" width="160" height="30" as="geometry" />
        </mxCell>
        <mxCell id="YZ_iTIWEsLRAkcZD_jYd-7" value="Cod. Tipo Habitacion" style="text;strokeColor=none;fillColor=none;spacingLeft=4;spacingRight=4;overflow=hidden;rotatable=0;points=[[0,0.5],[1,0.5]];portConstraint=eastwest;fontSize=12;whiteSpace=wrap;html=1;" parent="YZ_iTIWEsLRAkcZD_jYd-1" vertex="1">
          <mxGeometry y="180" width="160" height="30" as="geometry" />
        </mxCell>
        <mxCell id="xGpMS7PiCY9Kp0agLqRa-23" value="&lt;font style=&quot;font-size: 11px;&quot;&gt;Precio básico de la habitación&lt;/font&gt;" style="text;strokeColor=none;fillColor=none;spacingLeft=4;spacingRight=4;overflow=hidden;rotatable=0;points=[[0,0.5],[1,0.5]];portConstraint=eastwest;fontSize=12;whiteSpace=wrap;html=1;align=left;" parent="YZ_iTIWEsLRAkcZD_jYd-1" vertex="1">
          <mxGeometry y="210" width="160" height="30" as="geometry" />
        </mxCell>
        <mxCell id="DPNmPtZTHY25Sw5-x1fM-1" value="Periodo" style="swimlane;fontStyle=0;childLayout=stackLayout;horizontal=1;startSize=40;horizontalStack=0;resizeParent=1;resizeParentMax=0;resizeLast=0;collapsible=1;marginBottom=0;align=center;fontSize=14;" parent="1" vertex="1">
          <mxGeometry x="704" y="1770" width="160" height="100" as="geometry" />
        </mxCell>
        <mxCell id="DPNmPtZTHY25Sw5-x1fM-7" value="&lt;u&gt;Cod. período&amp;nbsp;&lt;/u&gt;" style="text;strokeColor=none;fillColor=none;spacingLeft=4;spacingRight=4;overflow=hidden;rotatable=0;points=[[0,0.5],[1,0.5]];portConstraint=eastwest;fontSize=12;whiteSpace=wrap;html=1;" parent="DPNmPtZTHY25Sw5-x1fM-1" vertex="1">
          <mxGeometry y="40" width="160" height="30" as="geometry" />
        </mxCell>
        <mxCell id="DPNmPtZTHY25Sw5-x1fM-8" value="&lt;div&gt;Nombre periodo&lt;/div&gt;" style="text;strokeColor=none;fillColor=none;spacingLeft=4;spacingRight=4;overflow=hidden;rotatable=0;points=[[0,0.5],[1,0.5]];portConstraint=eastwest;fontSize=12;whiteSpace=wrap;html=1;" parent="DPNmPtZTHY25Sw5-x1fM-1" vertex="1">
          <mxGeometry y="70" width="160" height="30" as="geometry" />
        </mxCell>
        <mxCell id="818opNGKGBq08x8-Oj2M-1" value="Facilidades" style="swimlane;fontStyle=0;childLayout=stackLayout;horizontal=1;startSize=26;horizontalStack=0;resizeParent=1;resizeParentMax=0;resizeLast=0;collapsible=1;marginBottom=0;align=center;fontSize=14;" parent="1" vertex="1">
          <mxGeometry x="534" y="1552" width="160" height="180" as="geometry" />
        </mxCell>
        <mxCell id="818opNGKGBq08x8-Oj2M-2" value="&lt;u&gt;Nº de País&lt;/u&gt;&lt;div&gt;&lt;br&gt;&lt;/div&gt;" style="text;strokeColor=none;fillColor=none;spacingLeft=4;spacingRight=4;overflow=hidden;rotatable=0;points=[[0,0.5],[1,0.5]];portConstraint=eastwest;fontSize=12;whiteSpace=wrap;html=1;" parent="818opNGKGBq08x8-Oj2M-1" vertex="1">
          <mxGeometry y="26" width="160" height="30" as="geometry" />
        </mxCell>
        <mxCell id="818opNGKGBq08x8-Oj2M-3" value="&lt;u&gt;Nº de ciudad&lt;/u&gt;&lt;div&gt;&lt;br&gt;&lt;/div&gt;" style="text;strokeColor=none;fillColor=none;spacingLeft=4;spacingRight=4;overflow=hidden;rotatable=0;points=[[0,0.5],[1,0.5]];portConstraint=eastwest;fontSize=12;whiteSpace=wrap;html=1;" parent="818opNGKGBq08x8-Oj2M-1" vertex="1">
          <mxGeometry y="56" width="160" height="30" as="geometry" />
        </mxCell>
        <mxCell id="818opNGKGBq08x8-Oj2M-4" value="&lt;u&gt;Nº de zona&lt;/u&gt;&lt;div&gt;&lt;br&gt;&lt;/div&gt;" style="text;strokeColor=none;fillColor=none;spacingLeft=4;spacingRight=4;overflow=hidden;rotatable=0;points=[[0,0.5],[1,0.5]];portConstraint=eastwest;fontSize=12;whiteSpace=wrap;html=1;" parent="818opNGKGBq08x8-Oj2M-1" vertex="1">
          <mxGeometry y="86" width="160" height="30" as="geometry" />
        </mxCell>
        <mxCell id="818opNGKGBq08x8-Oj2M-5" value="&lt;u&gt;Nº de hotel&lt;/u&gt;&lt;div&gt;&lt;br&gt;&lt;/div&gt;" style="text;strokeColor=none;fillColor=none;spacingLeft=4;spacingRight=4;overflow=hidden;rotatable=0;points=[[0,0.5],[1,0.5]];portConstraint=eastwest;fontSize=12;whiteSpace=wrap;html=1;" parent="818opNGKGBq08x8-Oj2M-1" vertex="1">
          <mxGeometry y="116" width="160" height="30" as="geometry" />
        </mxCell>
        <mxCell id="818opNGKGBq08x8-Oj2M-6" value="&lt;div&gt;&lt;u&gt;Cod facilidad&lt;/u&gt;&lt;/div&gt;" style="text;strokeColor=none;fillColor=none;spacingLeft=4;spacingRight=4;overflow=hidden;rotatable=0;points=[[0,0.5],[1,0.5]];portConstraint=eastwest;fontSize=12;whiteSpace=wrap;html=1;" parent="818opNGKGBq08x8-Oj2M-1" vertex="1">
          <mxGeometry y="146" width="160" height="34" as="geometry" />
        </mxCell>
        <mxCell id="818opNGKGBq08x8-Oj2M-8" value="Disponibilidad" style="swimlane;fontStyle=0;childLayout=stackLayout;horizontal=1;startSize=26;horizontalStack=0;resizeParent=1;resizeParentMax=0;resizeLast=0;collapsible=1;marginBottom=0;align=center;fontSize=14;" parent="1" vertex="1">
          <mxGeometry x="884" y="1550" width="160" height="270" as="geometry" />
        </mxCell>
        <mxCell id="818opNGKGBq08x8-Oj2M-9" value="&lt;div&gt;&lt;u&gt;Nº de País&lt;/u&gt;&lt;div&gt;&lt;br&gt;&lt;/div&gt;&lt;/div&gt;" style="text;strokeColor=none;fillColor=none;spacingLeft=4;spacingRight=4;overflow=hidden;rotatable=0;points=[[0,0.5],[1,0.5]];portConstraint=eastwest;fontSize=12;whiteSpace=wrap;html=1;" parent="818opNGKGBq08x8-Oj2M-8" vertex="1">
          <mxGeometry y="26" width="160" height="30" as="geometry" />
        </mxCell>
        <mxCell id="818opNGKGBq08x8-Oj2M-10" value="&lt;div&gt;&lt;u&gt;Nº de ciudad&lt;/u&gt;&lt;div&gt;&lt;br&gt;&lt;/div&gt;&lt;/div&gt;" style="text;strokeColor=none;fillColor=none;spacingLeft=4;spacingRight=4;overflow=hidden;rotatable=0;points=[[0,0.5],[1,0.5]];portConstraint=eastwest;fontSize=12;whiteSpace=wrap;html=1;" parent="818opNGKGBq08x8-Oj2M-8" vertex="1">
          <mxGeometry y="56" width="160" height="30" as="geometry" />
        </mxCell>
        <mxCell id="818opNGKGBq08x8-Oj2M-11" value="&lt;div&gt;&lt;u&gt;Nº de zona&lt;/u&gt;&lt;div&gt;&lt;br&gt;&lt;/div&gt;&lt;/div&gt;" style="text;strokeColor=none;fillColor=none;spacingLeft=4;spacingRight=4;overflow=hidden;rotatable=0;points=[[0,0.5],[1,0.5]];portConstraint=eastwest;fontSize=12;whiteSpace=wrap;html=1;" parent="818opNGKGBq08x8-Oj2M-8" vertex="1">
          <mxGeometry y="86" width="160" height="30" as="geometry" />
        </mxCell>
        <mxCell id="818opNGKGBq08x8-Oj2M-12" value="&lt;u&gt;Nº de hotel&lt;/u&gt;&lt;div&gt;&lt;br&gt;&lt;/div&gt;" style="text;strokeColor=none;fillColor=none;spacingLeft=4;spacingRight=4;overflow=hidden;rotatable=0;points=[[0,0.5],[1,0.5]];portConstraint=eastwest;fontSize=12;whiteSpace=wrap;html=1;" parent="818opNGKGBq08x8-Oj2M-8" vertex="1">
          <mxGeometry y="116" width="160" height="34" as="geometry" />
        </mxCell>
        <mxCell id="818opNGKGBq08x8-Oj2M-13" value="Nº de habitación" style="text;strokeColor=none;fillColor=none;spacingLeft=4;spacingRight=4;overflow=hidden;rotatable=0;points=[[0,0.5],[1,0.5]];portConstraint=eastwest;fontSize=12;whiteSpace=wrap;html=1;fontStyle=4" parent="818opNGKGBq08x8-Oj2M-8" vertex="1">
          <mxGeometry y="150" width="160" height="30" as="geometry" />
        </mxCell>
        <mxCell id="818opNGKGBq08x8-Oj2M-14" value="&lt;u&gt;Mes&lt;/u&gt;" style="text;strokeColor=none;fillColor=none;spacingLeft=4;spacingRight=4;overflow=hidden;rotatable=0;points=[[0,0.5],[1,0.5]];portConstraint=eastwest;fontSize=12;whiteSpace=wrap;html=1;" parent="818opNGKGBq08x8-Oj2M-8" vertex="1">
          <mxGeometry y="180" width="160" height="30" as="geometry" />
        </mxCell>
        <mxCell id="818opNGKGBq08x8-Oj2M-15" value="&lt;u&gt;Dia&lt;/u&gt;" style="text;strokeColor=none;fillColor=none;spacingLeft=4;spacingRight=4;overflow=hidden;rotatable=0;points=[[0,0.5],[1,0.5]];portConstraint=eastwest;fontSize=12;whiteSpace=wrap;html=1;" parent="818opNGKGBq08x8-Oj2M-8" vertex="1">
          <mxGeometry y="210" width="160" height="30" as="geometry" />
        </mxCell>
        <mxCell id="818opNGKGBq08x8-Oj2M-16" value="&lt;font style=&quot;font-size: 11px;&quot;&gt;Estado de la habitación&lt;/font&gt;" style="text;strokeColor=none;fillColor=none;spacingLeft=4;spacingRight=4;overflow=hidden;rotatable=0;points=[[0,0.5],[1,0.5]];portConstraint=eastwest;fontSize=12;whiteSpace=wrap;html=1;align=left;" parent="818opNGKGBq08x8-Oj2M-8" vertex="1">
          <mxGeometry y="240" width="160" height="30" as="geometry" />
        </mxCell>
        <mxCell id="PNuQ2EiDIIgi37u8jurp-2" value="&lt;span style=&quot;font-size: 18px;&quot;&gt;&lt;b&gt;DER&lt;/b&gt;&lt;/span&gt;" style="text;html=1;align=center;verticalAlign=middle;whiteSpace=wrap;rounded=0;" parent="1" vertex="1">
          <mxGeometry x="289" y="1900" width="280" height="30" as="geometry" />
        </mxCell>
        <mxCell id="IUQvbUs9-c0fdE0yTAyI-1" value="Tipo Facilidad" style="swimlane;fontStyle=0;childLayout=stackLayout;horizontal=1;startSize=26;horizontalStack=0;resizeParent=1;resizeParentMax=0;resizeLast=0;collapsible=1;marginBottom=0;align=center;fontSize=14;" parent="1" vertex="1">
          <mxGeometry x="509" y="1750" width="160" height="90" as="geometry" />
        </mxCell>
        <mxCell id="IUQvbUs9-c0fdE0yTAyI-2" value="&lt;div&gt;&lt;u&gt;Cod facilidad&lt;/u&gt;&lt;/div&gt;" style="text;strokeColor=none;fillColor=none;spacingLeft=4;spacingRight=4;overflow=hidden;rotatable=0;points=[[0,0.5],[1,0.5]];portConstraint=eastwest;fontSize=12;whiteSpace=wrap;html=1;" parent="IUQvbUs9-c0fdE0yTAyI-1" vertex="1">
          <mxGeometry y="26" width="160" height="34" as="geometry" />
        </mxCell>
        <mxCell id="IUQvbUs9-c0fdE0yTAyI-3" value="&lt;div&gt;Descrip. Facilidad&lt;br/&gt;&lt;/div&gt;" style="text;strokeColor=none;fillColor=none;spacingLeft=4;spacingRight=4;overflow=hidden;rotatable=0;points=[[0,0.5],[1,0.5]];portConstraint=eastwest;fontSize=12;whiteSpace=wrap;html=1;" parent="IUQvbUs9-c0fdE0yTAyI-1" vertex="1">
          <mxGeometry y="60" width="160" height="30" as="geometry" />
        </mxCell>
        <mxCell id="ZkUUD-Mt2sVkWkpbCQjQ-7" value="Hoteles" style="swimlane;fontStyle=0;childLayout=stackLayout;horizontal=1;startSize=26;horizontalStack=0;resizeParent=1;resizeParentMax=0;resizeLast=0;collapsible=1;marginBottom=0;align=center;fontSize=14;" vertex="1" parent="1">
          <mxGeometry x="360" y="2230" width="160" height="236" as="geometry" />
        </mxCell>
        <mxCell id="ZkUUD-Mt2sVkWkpbCQjQ-8" value="&lt;u&gt;Nº de País&lt;/u&gt;&lt;div&gt;&lt;br&gt;&lt;/div&gt;" style="text;strokeColor=none;fillColor=none;spacingLeft=4;spacingRight=4;overflow=hidden;rotatable=0;points=[[0,0.5],[1,0.5]];portConstraint=eastwest;fontSize=12;whiteSpace=wrap;html=1;" vertex="1" parent="ZkUUD-Mt2sVkWkpbCQjQ-7">
          <mxGeometry y="26" width="160" height="30" as="geometry" />
        </mxCell>
        <mxCell id="ZkUUD-Mt2sVkWkpbCQjQ-9" value="&lt;u&gt;Nº de ciudad&lt;/u&gt;&lt;div&gt;&lt;br&gt;&lt;/div&gt;" style="text;strokeColor=none;fillColor=none;spacingLeft=4;spacingRight=4;overflow=hidden;rotatable=0;points=[[0,0.5],[1,0.5]];portConstraint=eastwest;fontSize=12;whiteSpace=wrap;html=1;" vertex="1" parent="ZkUUD-Mt2sVkWkpbCQjQ-7">
          <mxGeometry y="56" width="160" height="30" as="geometry" />
        </mxCell>
        <mxCell id="ZkUUD-Mt2sVkWkpbCQjQ-10" value="&lt;u&gt;Nº de zona&lt;/u&gt;&lt;div&gt;&lt;br&gt;&lt;/div&gt;" style="text;strokeColor=none;fillColor=none;spacingLeft=4;spacingRight=4;overflow=hidden;rotatable=0;points=[[0,0.5],[1,0.5]];portConstraint=eastwest;fontSize=12;whiteSpace=wrap;html=1;" vertex="1" parent="ZkUUD-Mt2sVkWkpbCQjQ-7">
          <mxGeometry y="86" width="160" height="30" as="geometry" />
        </mxCell>
        <mxCell id="ZkUUD-Mt2sVkWkpbCQjQ-11" value="&lt;u&gt;Nº de hotel&lt;/u&gt;&lt;div&gt;&lt;br&gt;&lt;/div&gt;" style="text;strokeColor=none;fillColor=none;spacingLeft=4;spacingRight=4;overflow=hidden;rotatable=0;points=[[0,0.5],[1,0.5]];portConstraint=eastwest;fontSize=12;whiteSpace=wrap;html=1;" vertex="1" parent="ZkUUD-Mt2sVkWkpbCQjQ-7">
          <mxGeometry y="116" width="160" height="30" as="geometry" />
        </mxCell>
        <mxCell id="ZkUUD-Mt2sVkWkpbCQjQ-12" value="Nombre del hotel&lt;div&gt;&lt;br/&gt;&lt;/div&gt;" style="text;strokeColor=none;fillColor=none;spacingLeft=4;spacingRight=4;overflow=hidden;rotatable=0;points=[[0,0.5],[1,0.5]];portConstraint=eastwest;fontSize=12;whiteSpace=wrap;html=1;" vertex="1" parent="ZkUUD-Mt2sVkWkpbCQjQ-7">
          <mxGeometry y="146" width="160" height="30" as="geometry" />
        </mxCell>
        <mxCell id="ZkUUD-Mt2sVkWkpbCQjQ-13" value="Dirección del hotel&lt;div&gt;&lt;br/&gt;&lt;/div&gt;" style="text;strokeColor=none;fillColor=none;spacingLeft=4;spacingRight=4;overflow=hidden;rotatable=0;points=[[0,0.5],[1,0.5]];portConstraint=eastwest;fontSize=12;whiteSpace=wrap;html=1;" vertex="1" parent="ZkUUD-Mt2sVkWkpbCQjQ-7">
          <mxGeometry y="176" width="160" height="30" as="geometry" />
        </mxCell>
        <mxCell id="ZkUUD-Mt2sVkWkpbCQjQ-14" value="Cod. de categoría&lt;div&gt;&lt;br/&gt;&lt;/div&gt;" style="text;strokeColor=none;fillColor=none;spacingLeft=4;spacingRight=4;overflow=hidden;rotatable=0;points=[[0,0.5],[1,0.5]];portConstraint=eastwest;fontSize=12;whiteSpace=wrap;html=1;" vertex="1" parent="ZkUUD-Mt2sVkWkpbCQjQ-7">
          <mxGeometry y="206" width="160" height="30" as="geometry" />
        </mxCell>
        <mxCell id="ZkUUD-Mt2sVkWkpbCQjQ-15" value="Habitaciones" style="swimlane;fontStyle=0;childLayout=stackLayout;horizontal=1;startSize=26;horizontalStack=0;resizeParent=1;resizeParentMax=0;resizeLast=0;collapsible=1;marginBottom=0;align=center;fontSize=14;" vertex="1" parent="1">
          <mxGeometry x="129" y="2240" width="160" height="240" as="geometry" />
        </mxCell>
        <mxCell id="ZkUUD-Mt2sVkWkpbCQjQ-16" value="&lt;div&gt;&lt;u&gt;Nº de País&lt;/u&gt;&lt;div&gt;&lt;br&gt;&lt;/div&gt;&lt;/div&gt;" style="text;strokeColor=none;fillColor=none;spacingLeft=4;spacingRight=4;overflow=hidden;rotatable=0;points=[[0,0.5],[1,0.5]];portConstraint=eastwest;fontSize=12;whiteSpace=wrap;html=1;" vertex="1" parent="ZkUUD-Mt2sVkWkpbCQjQ-15">
          <mxGeometry y="26" width="160" height="30" as="geometry" />
        </mxCell>
        <mxCell id="ZkUUD-Mt2sVkWkpbCQjQ-17" value="&lt;div&gt;&lt;u&gt;Nº de ciudad&lt;/u&gt;&lt;div&gt;&lt;br&gt;&lt;/div&gt;&lt;/div&gt;" style="text;strokeColor=none;fillColor=none;spacingLeft=4;spacingRight=4;overflow=hidden;rotatable=0;points=[[0,0.5],[1,0.5]];portConstraint=eastwest;fontSize=12;whiteSpace=wrap;html=1;" vertex="1" parent="ZkUUD-Mt2sVkWkpbCQjQ-15">
          <mxGeometry y="56" width="160" height="30" as="geometry" />
        </mxCell>
        <mxCell id="ZkUUD-Mt2sVkWkpbCQjQ-18" value="&lt;div&gt;&lt;u&gt;Nº de zona&lt;/u&gt;&lt;div&gt;&lt;br&gt;&lt;/div&gt;&lt;/div&gt;" style="text;strokeColor=none;fillColor=none;spacingLeft=4;spacingRight=4;overflow=hidden;rotatable=0;points=[[0,0.5],[1,0.5]];portConstraint=eastwest;fontSize=12;whiteSpace=wrap;html=1;" vertex="1" parent="ZkUUD-Mt2sVkWkpbCQjQ-15">
          <mxGeometry y="86" width="160" height="30" as="geometry" />
        </mxCell>
        <mxCell id="ZkUUD-Mt2sVkWkpbCQjQ-19" value="Nº de hotel&lt;div&gt;&lt;br&gt;&lt;/div&gt;" style="text;strokeColor=none;fillColor=none;spacingLeft=4;spacingRight=4;overflow=hidden;rotatable=0;points=[[0,0.5],[1,0.5]];portConstraint=eastwest;fontSize=12;whiteSpace=wrap;html=1;fontStyle=4" vertex="1" parent="ZkUUD-Mt2sVkWkpbCQjQ-15">
          <mxGeometry y="116" width="160" height="34" as="geometry" />
        </mxCell>
        <mxCell id="ZkUUD-Mt2sVkWkpbCQjQ-20" value="Nº de habitación" style="text;strokeColor=none;fillColor=none;spacingLeft=4;spacingRight=4;overflow=hidden;rotatable=0;points=[[0,0.5],[1,0.5]];portConstraint=eastwest;fontSize=12;whiteSpace=wrap;html=1;fontStyle=4" vertex="1" parent="ZkUUD-Mt2sVkWkpbCQjQ-15">
          <mxGeometry y="150" width="160" height="30" as="geometry" />
        </mxCell>
        <mxCell id="ZkUUD-Mt2sVkWkpbCQjQ-21" value="Cod. Tipo Habitacion" style="text;strokeColor=none;fillColor=none;spacingLeft=4;spacingRight=4;overflow=hidden;rotatable=0;points=[[0,0.5],[1,0.5]];portConstraint=eastwest;fontSize=12;whiteSpace=wrap;html=1;" vertex="1" parent="ZkUUD-Mt2sVkWkpbCQjQ-15">
          <mxGeometry y="180" width="160" height="30" as="geometry" />
        </mxCell>
        <mxCell id="ZkUUD-Mt2sVkWkpbCQjQ-22" value="&lt;font style=&quot;font-size: 11px;&quot;&gt;Precio básico de la habitación&lt;/font&gt;" style="text;strokeColor=none;fillColor=none;spacingLeft=4;spacingRight=4;overflow=hidden;rotatable=0;points=[[0,0.5],[1,0.5]];portConstraint=eastwest;fontSize=12;whiteSpace=wrap;html=1;align=left;" vertex="1" parent="ZkUUD-Mt2sVkWkpbCQjQ-15">
          <mxGeometry y="210" width="160" height="30" as="geometry" />
        </mxCell>
        <mxCell id="ZkUUD-Mt2sVkWkpbCQjQ-23" value="Paises" style="swimlane;fontStyle=0;childLayout=stackLayout;horizontal=1;startSize=26;horizontalStack=0;resizeParent=1;resizeParentMax=0;resizeLast=0;collapsible=1;marginBottom=0;align=center;fontSize=14;" vertex="1" parent="1">
          <mxGeometry x="120" y="2065" width="160" height="86" as="geometry" />
        </mxCell>
        <mxCell id="ZkUUD-Mt2sVkWkpbCQjQ-24" value="&lt;u&gt;Nº de País&lt;/u&gt;" style="text;strokeColor=none;fillColor=none;spacingLeft=4;spacingRight=4;overflow=hidden;rotatable=0;points=[[0,0.5],[1,0.5]];portConstraint=eastwest;fontSize=12;whiteSpace=wrap;html=1;" vertex="1" parent="ZkUUD-Mt2sVkWkpbCQjQ-23">
          <mxGeometry y="26" width="160" height="30" as="geometry" />
        </mxCell>
        <mxCell id="ZkUUD-Mt2sVkWkpbCQjQ-25" value="Nombre del país" style="text;strokeColor=none;fillColor=none;spacingLeft=4;spacingRight=4;overflow=hidden;rotatable=0;points=[[0,0.5],[1,0.5]];portConstraint=eastwest;fontSize=12;whiteSpace=wrap;html=1;" vertex="1" parent="ZkUUD-Mt2sVkWkpbCQjQ-23">
          <mxGeometry y="56" width="160" height="30" as="geometry" />
        </mxCell>
        <mxCell id="ZkUUD-Mt2sVkWkpbCQjQ-26" value="Categoria" style="swimlane;fontStyle=0;childLayout=stackLayout;horizontal=1;startSize=26;horizontalStack=0;resizeParent=1;resizeParentMax=0;resizeLast=0;collapsible=1;marginBottom=0;align=center;fontSize=14;" vertex="1" parent="1">
          <mxGeometry x="360" y="2500" width="160" height="86" as="geometry" />
        </mxCell>
        <mxCell id="ZkUUD-Mt2sVkWkpbCQjQ-27" value="Cod. de categoría&lt;div&gt;&lt;br&gt;&lt;/div&gt;" style="text;strokeColor=none;fillColor=none;spacingLeft=4;spacingRight=4;overflow=hidden;rotatable=0;points=[[0,0.5],[1,0.5]];portConstraint=eastwest;fontSize=12;whiteSpace=wrap;html=1;fontStyle=4" vertex="1" parent="ZkUUD-Mt2sVkWkpbCQjQ-26">
          <mxGeometry y="26" width="160" height="30" as="geometry" />
        </mxCell>
        <mxCell id="ZkUUD-Mt2sVkWkpbCQjQ-28" value="Descripción de categoría&lt;div&gt;&lt;br/&gt;&lt;/div&gt;" style="text;strokeColor=none;fillColor=none;spacingLeft=4;spacingRight=4;overflow=hidden;rotatable=0;points=[[0,0.5],[1,0.5]];portConstraint=eastwest;fontSize=12;whiteSpace=wrap;html=1;" vertex="1" parent="ZkUUD-Mt2sVkWkpbCQjQ-26">
          <mxGeometry y="56" width="160" height="30" as="geometry" />
        </mxCell>
        <mxCell id="ZkUUD-Mt2sVkWkpbCQjQ-29" value="Tipo Habitación" style="swimlane;fontStyle=0;childLayout=stackLayout;horizontal=1;startSize=26;horizontalStack=0;resizeParent=1;resizeParentMax=0;resizeLast=0;collapsible=1;marginBottom=0;align=center;fontSize=14;" vertex="1" parent="1">
          <mxGeometry x="129" y="2520" width="160" height="86" as="geometry" />
        </mxCell>
        <mxCell id="ZkUUD-Mt2sVkWkpbCQjQ-30" value="&lt;u&gt;Cod. Tipo Habitacion&lt;/u&gt;" style="text;strokeColor=none;fillColor=none;spacingLeft=4;spacingRight=4;overflow=hidden;rotatable=0;points=[[0,0.5],[1,0.5]];portConstraint=eastwest;fontSize=12;whiteSpace=wrap;html=1;" vertex="1" parent="ZkUUD-Mt2sVkWkpbCQjQ-29">
          <mxGeometry y="26" width="160" height="30" as="geometry" />
        </mxCell>
        <mxCell id="ZkUUD-Mt2sVkWkpbCQjQ-31" value="Descrip. Tipo de habitación" style="text;strokeColor=none;fillColor=none;spacingLeft=4;spacingRight=4;overflow=hidden;rotatable=0;points=[[0,0.5],[1,0.5]];portConstraint=eastwest;fontSize=12;whiteSpace=wrap;html=1;" vertex="1" parent="ZkUUD-Mt2sVkWkpbCQjQ-29">
          <mxGeometry y="56" width="160" height="30" as="geometry" />
        </mxCell>
        <mxCell id="ZkUUD-Mt2sVkWkpbCQjQ-32" value="Ciudades" style="swimlane;fontStyle=0;childLayout=stackLayout;horizontal=1;startSize=26;horizontalStack=0;resizeParent=1;resizeParentMax=0;resizeLast=0;collapsible=1;marginBottom=0;align=center;fontSize=14;" vertex="1" parent="1">
          <mxGeometry x="360" y="2050" width="160" height="116" as="geometry" />
        </mxCell>
        <mxCell id="ZkUUD-Mt2sVkWkpbCQjQ-33" value="&lt;u&gt;Nº de ciudad&lt;/u&gt;&lt;div&gt;&lt;br&gt;&lt;/div&gt;" style="text;strokeColor=none;fillColor=none;spacingLeft=4;spacingRight=4;overflow=hidden;rotatable=0;points=[[0,0.5],[1,0.5]];portConstraint=eastwest;fontSize=12;whiteSpace=wrap;html=1;" vertex="1" parent="ZkUUD-Mt2sVkWkpbCQjQ-32">
          <mxGeometry y="26" width="160" height="30" as="geometry" />
        </mxCell>
        <mxCell id="ZkUUD-Mt2sVkWkpbCQjQ-34" value="&lt;u&gt;Nº de País&lt;/u&gt;" style="text;strokeColor=none;fillColor=none;spacingLeft=4;spacingRight=4;overflow=hidden;rotatable=0;points=[[0,0.5],[1,0.5]];portConstraint=eastwest;fontSize=12;whiteSpace=wrap;html=1;" vertex="1" parent="ZkUUD-Mt2sVkWkpbCQjQ-32">
          <mxGeometry y="56" width="160" height="30" as="geometry" />
        </mxCell>
        <mxCell id="ZkUUD-Mt2sVkWkpbCQjQ-35" value="Nombre de ciudad&lt;div&gt;&lt;br&gt;&lt;/div&gt;" style="text;strokeColor=none;fillColor=none;spacingLeft=4;spacingRight=4;overflow=hidden;rotatable=0;points=[[0,0.5],[1,0.5]];portConstraint=eastwest;fontSize=12;whiteSpace=wrap;html=1;" vertex="1" parent="ZkUUD-Mt2sVkWkpbCQjQ-32">
          <mxGeometry y="86" width="160" height="30" as="geometry" />
        </mxCell>
        <mxCell id="ZkUUD-Mt2sVkWkpbCQjQ-36" value="Zonas" style="swimlane;fontStyle=0;childLayout=stackLayout;horizontal=1;startSize=26;horizontalStack=0;resizeParent=1;resizeParentMax=0;resizeLast=0;collapsible=1;marginBottom=0;align=center;fontSize=14;" vertex="1" parent="1">
          <mxGeometry x="600" y="2050" width="160" height="146" as="geometry" />
        </mxCell>
        <mxCell id="ZkUUD-Mt2sVkWkpbCQjQ-37" value="&lt;u&gt;Nº de ciudad&lt;/u&gt;&lt;div&gt;&lt;br&gt;&lt;/div&gt;" style="text;strokeColor=none;fillColor=none;spacingLeft=4;spacingRight=4;overflow=hidden;rotatable=0;points=[[0,0.5],[1,0.5]];portConstraint=eastwest;fontSize=12;whiteSpace=wrap;html=1;" vertex="1" parent="ZkUUD-Mt2sVkWkpbCQjQ-36">
          <mxGeometry y="26" width="160" height="30" as="geometry" />
        </mxCell>
        <mxCell id="ZkUUD-Mt2sVkWkpbCQjQ-38" value="&lt;u&gt;Nº de País&lt;/u&gt;" style="text;strokeColor=none;fillColor=none;spacingLeft=4;spacingRight=4;overflow=hidden;rotatable=0;points=[[0,0.5],[1,0.5]];portConstraint=eastwest;fontSize=12;whiteSpace=wrap;html=1;" vertex="1" parent="ZkUUD-Mt2sVkWkpbCQjQ-36">
          <mxGeometry y="56" width="160" height="30" as="geometry" />
        </mxCell>
        <mxCell id="ZkUUD-Mt2sVkWkpbCQjQ-39" value="&lt;u&gt;Nº de zona&lt;/u&gt;&lt;div&gt;&lt;br&gt;&lt;/div&gt;" style="text;strokeColor=none;fillColor=none;spacingLeft=4;spacingRight=4;overflow=hidden;rotatable=0;points=[[0,0.5],[1,0.5]];portConstraint=eastwest;fontSize=12;whiteSpace=wrap;html=1;" vertex="1" parent="ZkUUD-Mt2sVkWkpbCQjQ-36">
          <mxGeometry y="86" width="160" height="30" as="geometry" />
        </mxCell>
        <mxCell id="ZkUUD-Mt2sVkWkpbCQjQ-40" value="Nombre de Zona&lt;div&gt;&lt;br&gt;&lt;/div&gt;" style="text;strokeColor=none;fillColor=none;spacingLeft=4;spacingRight=4;overflow=hidden;rotatable=0;points=[[0,0.5],[1,0.5]];portConstraint=eastwest;fontSize=12;whiteSpace=wrap;html=1;" vertex="1" parent="ZkUUD-Mt2sVkWkpbCQjQ-36">
          <mxGeometry y="116" width="160" height="30" as="geometry" />
        </mxCell>
        <mxCell id="ZkUUD-Mt2sVkWkpbCQjQ-41" value="Facilidades" style="swimlane;fontStyle=0;childLayout=stackLayout;horizontal=1;startSize=26;horizontalStack=0;resizeParent=1;resizeParentMax=0;resizeLast=0;collapsible=1;marginBottom=0;align=center;fontSize=14;" vertex="1" parent="1">
          <mxGeometry x="580" y="2230" width="160" height="180" as="geometry" />
        </mxCell>
        <mxCell id="ZkUUD-Mt2sVkWkpbCQjQ-42" value="&lt;u&gt;Nº de País&lt;/u&gt;&lt;div&gt;&lt;br&gt;&lt;/div&gt;" style="text;strokeColor=none;fillColor=none;spacingLeft=4;spacingRight=4;overflow=hidden;rotatable=0;points=[[0,0.5],[1,0.5]];portConstraint=eastwest;fontSize=12;whiteSpace=wrap;html=1;" vertex="1" parent="ZkUUD-Mt2sVkWkpbCQjQ-41">
          <mxGeometry y="26" width="160" height="30" as="geometry" />
        </mxCell>
        <mxCell id="ZkUUD-Mt2sVkWkpbCQjQ-43" value="&lt;u&gt;Nº de ciudad&lt;/u&gt;&lt;div&gt;&lt;br&gt;&lt;/div&gt;" style="text;strokeColor=none;fillColor=none;spacingLeft=4;spacingRight=4;overflow=hidden;rotatable=0;points=[[0,0.5],[1,0.5]];portConstraint=eastwest;fontSize=12;whiteSpace=wrap;html=1;" vertex="1" parent="ZkUUD-Mt2sVkWkpbCQjQ-41">
          <mxGeometry y="56" width="160" height="30" as="geometry" />
        </mxCell>
        <mxCell id="ZkUUD-Mt2sVkWkpbCQjQ-44" value="&lt;u&gt;Nº de zona&lt;/u&gt;&lt;div&gt;&lt;br&gt;&lt;/div&gt;" style="text;strokeColor=none;fillColor=none;spacingLeft=4;spacingRight=4;overflow=hidden;rotatable=0;points=[[0,0.5],[1,0.5]];portConstraint=eastwest;fontSize=12;whiteSpace=wrap;html=1;" vertex="1" parent="ZkUUD-Mt2sVkWkpbCQjQ-41">
          <mxGeometry y="86" width="160" height="30" as="geometry" />
        </mxCell>
        <mxCell id="ZkUUD-Mt2sVkWkpbCQjQ-45" value="&lt;u&gt;Nº de hotel&lt;/u&gt;&lt;div&gt;&lt;br&gt;&lt;/div&gt;" style="text;strokeColor=none;fillColor=none;spacingLeft=4;spacingRight=4;overflow=hidden;rotatable=0;points=[[0,0.5],[1,0.5]];portConstraint=eastwest;fontSize=12;whiteSpace=wrap;html=1;" vertex="1" parent="ZkUUD-Mt2sVkWkpbCQjQ-41">
          <mxGeometry y="116" width="160" height="30" as="geometry" />
        </mxCell>
        <mxCell id="ZkUUD-Mt2sVkWkpbCQjQ-46" value="&lt;div&gt;&lt;u&gt;Cod facilidad&lt;/u&gt;&lt;/div&gt;" style="text;strokeColor=none;fillColor=none;spacingLeft=4;spacingRight=4;overflow=hidden;rotatable=0;points=[[0,0.5],[1,0.5]];portConstraint=eastwest;fontSize=12;whiteSpace=wrap;html=1;" vertex="1" parent="ZkUUD-Mt2sVkWkpbCQjQ-41">
          <mxGeometry y="146" width="160" height="34" as="geometry" />
        </mxCell>
        <mxCell id="ZkUUD-Mt2sVkWkpbCQjQ-47" value="Periodo" style="swimlane;fontStyle=0;childLayout=stackLayout;horizontal=1;startSize=40;horizontalStack=0;resizeParent=1;resizeParentMax=0;resizeLast=0;collapsible=1;marginBottom=0;align=center;fontSize=14;" vertex="1" parent="1">
          <mxGeometry x="800" y="2540" width="160" height="100" as="geometry" />
        </mxCell>
        <mxCell id="ZkUUD-Mt2sVkWkpbCQjQ-48" value="&lt;u&gt;Cod. período&amp;nbsp;&lt;/u&gt;" style="text;strokeColor=none;fillColor=none;spacingLeft=4;spacingRight=4;overflow=hidden;rotatable=0;points=[[0,0.5],[1,0.5]];portConstraint=eastwest;fontSize=12;whiteSpace=wrap;html=1;" vertex="1" parent="ZkUUD-Mt2sVkWkpbCQjQ-47">
          <mxGeometry y="40" width="160" height="30" as="geometry" />
        </mxCell>
        <mxCell id="ZkUUD-Mt2sVkWkpbCQjQ-49" value="&lt;div&gt;Nombre periodo&lt;/div&gt;" style="text;strokeColor=none;fillColor=none;spacingLeft=4;spacingRight=4;overflow=hidden;rotatable=0;points=[[0,0.5],[1,0.5]];portConstraint=eastwest;fontSize=12;whiteSpace=wrap;html=1;" vertex="1" parent="ZkUUD-Mt2sVkWkpbCQjQ-47">
          <mxGeometry y="70" width="160" height="30" as="geometry" />
        </mxCell>
        <mxCell id="ZkUUD-Mt2sVkWkpbCQjQ-50" value="Diferencial por&#xa;temporada alta" style="swimlane;fontStyle=0;childLayout=stackLayout;horizontal=1;startSize=40;horizontalStack=0;resizeParent=1;resizeParentMax=0;resizeLast=0;collapsible=1;marginBottom=0;align=center;fontSize=14;" vertex="1" parent="1">
          <mxGeometry x="806" y="2240" width="160" height="250" as="geometry" />
        </mxCell>
        <mxCell id="ZkUUD-Mt2sVkWkpbCQjQ-51" value="&lt;u&gt;Nº de País&lt;/u&gt;&lt;div&gt;&lt;br&gt;&lt;/div&gt;" style="text;strokeColor=none;fillColor=none;spacingLeft=4;spacingRight=4;overflow=hidden;rotatable=0;points=[[0,0.5],[1,0.5]];portConstraint=eastwest;fontSize=12;whiteSpace=wrap;html=1;" vertex="1" parent="ZkUUD-Mt2sVkWkpbCQjQ-50">
          <mxGeometry y="40" width="160" height="30" as="geometry" />
        </mxCell>
        <mxCell id="ZkUUD-Mt2sVkWkpbCQjQ-52" value="&lt;div&gt;&lt;u&gt;Nº de ciudad&lt;/u&gt;&lt;div&gt;&lt;br&gt;&lt;/div&gt;&lt;/div&gt;" style="text;strokeColor=none;fillColor=none;spacingLeft=4;spacingRight=4;overflow=hidden;rotatable=0;points=[[0,0.5],[1,0.5]];portConstraint=eastwest;fontSize=12;whiteSpace=wrap;html=1;" vertex="1" parent="ZkUUD-Mt2sVkWkpbCQjQ-50">
          <mxGeometry y="70" width="160" height="30" as="geometry" />
        </mxCell>
        <mxCell id="ZkUUD-Mt2sVkWkpbCQjQ-53" value="&lt;div&gt;&lt;u&gt;Nº de zona&lt;/u&gt;&lt;div&gt;&lt;br&gt;&lt;/div&gt;&lt;/div&gt;" style="text;strokeColor=none;fillColor=none;spacingLeft=4;spacingRight=4;overflow=hidden;rotatable=0;points=[[0,0.5],[1,0.5]];portConstraint=eastwest;fontSize=12;whiteSpace=wrap;html=1;" vertex="1" parent="ZkUUD-Mt2sVkWkpbCQjQ-50">
          <mxGeometry y="100" width="160" height="30" as="geometry" />
        </mxCell>
        <mxCell id="ZkUUD-Mt2sVkWkpbCQjQ-54" value="&lt;div&gt;&lt;u&gt;Nº de hotel&lt;/u&gt;&lt;div&gt;&lt;br&gt;&lt;/div&gt;&lt;/div&gt;" style="text;strokeColor=none;fillColor=none;spacingLeft=4;spacingRight=4;overflow=hidden;rotatable=0;points=[[0,0.5],[1,0.5]];portConstraint=eastwest;fontSize=12;whiteSpace=wrap;html=1;" vertex="1" parent="ZkUUD-Mt2sVkWkpbCQjQ-50">
          <mxGeometry y="130" width="160" height="30" as="geometry" />
        </mxCell>
        <mxCell id="ZkUUD-Mt2sVkWkpbCQjQ-55" value="&lt;span style=&quot;text-decoration-line: underline;&quot;&gt;Nº de habitación&lt;/span&gt;" style="text;strokeColor=none;fillColor=none;spacingLeft=4;spacingRight=4;overflow=hidden;rotatable=0;points=[[0,0.5],[1,0.5]];portConstraint=eastwest;fontSize=12;whiteSpace=wrap;html=1;" vertex="1" parent="ZkUUD-Mt2sVkWkpbCQjQ-50">
          <mxGeometry y="160" width="160" height="30" as="geometry" />
        </mxCell>
        <mxCell id="ZkUUD-Mt2sVkWkpbCQjQ-56" value="&lt;u&gt;Cod. período&amp;nbsp;&lt;/u&gt;" style="text;strokeColor=none;fillColor=none;spacingLeft=4;spacingRight=4;overflow=hidden;rotatable=0;points=[[0,0.5],[1,0.5]];portConstraint=eastwest;fontSize=12;whiteSpace=wrap;html=1;" vertex="1" parent="ZkUUD-Mt2sVkWkpbCQjQ-50">
          <mxGeometry y="190" width="160" height="30" as="geometry" />
        </mxCell>
        <mxCell id="ZkUUD-Mt2sVkWkpbCQjQ-57" value="Porc. de ajuste&lt;div&gt;&lt;br/&gt;&lt;/div&gt;" style="text;strokeColor=none;fillColor=none;spacingLeft=4;spacingRight=4;overflow=hidden;rotatable=0;points=[[0,0.5],[1,0.5]];portConstraint=eastwest;fontSize=12;whiteSpace=wrap;html=1;" vertex="1" parent="ZkUUD-Mt2sVkWkpbCQjQ-50">
          <mxGeometry y="220" width="160" height="30" as="geometry" />
        </mxCell>
        <mxCell id="ZkUUD-Mt2sVkWkpbCQjQ-58" value="Disponibilidad" style="swimlane;fontStyle=0;childLayout=stackLayout;horizontal=1;startSize=26;horizontalStack=0;resizeParent=1;resizeParentMax=0;resizeLast=0;collapsible=1;marginBottom=0;align=center;fontSize=14;" vertex="1" parent="1">
          <mxGeometry x="-116" y="2225" width="160" height="270" as="geometry" />
        </mxCell>
        <mxCell id="ZkUUD-Mt2sVkWkpbCQjQ-59" value="&lt;div&gt;&lt;u&gt;Nº de País&lt;/u&gt;&lt;div&gt;&lt;br&gt;&lt;/div&gt;&lt;/div&gt;" style="text;strokeColor=none;fillColor=none;spacingLeft=4;spacingRight=4;overflow=hidden;rotatable=0;points=[[0,0.5],[1,0.5]];portConstraint=eastwest;fontSize=12;whiteSpace=wrap;html=1;" vertex="1" parent="ZkUUD-Mt2sVkWkpbCQjQ-58">
          <mxGeometry y="26" width="160" height="30" as="geometry" />
        </mxCell>
        <mxCell id="ZkUUD-Mt2sVkWkpbCQjQ-60" value="&lt;div&gt;&lt;u&gt;Nº de ciudad&lt;/u&gt;&lt;div&gt;&lt;br&gt;&lt;/div&gt;&lt;/div&gt;" style="text;strokeColor=none;fillColor=none;spacingLeft=4;spacingRight=4;overflow=hidden;rotatable=0;points=[[0,0.5],[1,0.5]];portConstraint=eastwest;fontSize=12;whiteSpace=wrap;html=1;" vertex="1" parent="ZkUUD-Mt2sVkWkpbCQjQ-58">
          <mxGeometry y="56" width="160" height="30" as="geometry" />
        </mxCell>
        <mxCell id="ZkUUD-Mt2sVkWkpbCQjQ-61" value="&lt;div&gt;&lt;u&gt;Nº de zona&lt;/u&gt;&lt;div&gt;&lt;br&gt;&lt;/div&gt;&lt;/div&gt;" style="text;strokeColor=none;fillColor=none;spacingLeft=4;spacingRight=4;overflow=hidden;rotatable=0;points=[[0,0.5],[1,0.5]];portConstraint=eastwest;fontSize=12;whiteSpace=wrap;html=1;" vertex="1" parent="ZkUUD-Mt2sVkWkpbCQjQ-58">
          <mxGeometry y="86" width="160" height="30" as="geometry" />
        </mxCell>
        <mxCell id="ZkUUD-Mt2sVkWkpbCQjQ-62" value="&lt;u&gt;Nº de hotel&lt;/u&gt;&lt;div&gt;&lt;br&gt;&lt;/div&gt;" style="text;strokeColor=none;fillColor=none;spacingLeft=4;spacingRight=4;overflow=hidden;rotatable=0;points=[[0,0.5],[1,0.5]];portConstraint=eastwest;fontSize=12;whiteSpace=wrap;html=1;" vertex="1" parent="ZkUUD-Mt2sVkWkpbCQjQ-58">
          <mxGeometry y="116" width="160" height="34" as="geometry" />
        </mxCell>
        <mxCell id="ZkUUD-Mt2sVkWkpbCQjQ-63" value="Nº de habitación" style="text;strokeColor=none;fillColor=none;spacingLeft=4;spacingRight=4;overflow=hidden;rotatable=0;points=[[0,0.5],[1,0.5]];portConstraint=eastwest;fontSize=12;whiteSpace=wrap;html=1;fontStyle=4" vertex="1" parent="ZkUUD-Mt2sVkWkpbCQjQ-58">
          <mxGeometry y="150" width="160" height="30" as="geometry" />
        </mxCell>
        <mxCell id="ZkUUD-Mt2sVkWkpbCQjQ-64" value="&lt;u&gt;Mes&lt;/u&gt;" style="text;strokeColor=none;fillColor=none;spacingLeft=4;spacingRight=4;overflow=hidden;rotatable=0;points=[[0,0.5],[1,0.5]];portConstraint=eastwest;fontSize=12;whiteSpace=wrap;html=1;" vertex="1" parent="ZkUUD-Mt2sVkWkpbCQjQ-58">
          <mxGeometry y="180" width="160" height="30" as="geometry" />
        </mxCell>
        <mxCell id="ZkUUD-Mt2sVkWkpbCQjQ-65" value="&lt;u&gt;Dia&lt;/u&gt;" style="text;strokeColor=none;fillColor=none;spacingLeft=4;spacingRight=4;overflow=hidden;rotatable=0;points=[[0,0.5],[1,0.5]];portConstraint=eastwest;fontSize=12;whiteSpace=wrap;html=1;" vertex="1" parent="ZkUUD-Mt2sVkWkpbCQjQ-58">
          <mxGeometry y="210" width="160" height="30" as="geometry" />
        </mxCell>
        <mxCell id="ZkUUD-Mt2sVkWkpbCQjQ-66" value="&lt;font style=&quot;font-size: 11px;&quot;&gt;Estado de la habitación&lt;/font&gt;" style="text;strokeColor=none;fillColor=none;spacingLeft=4;spacingRight=4;overflow=hidden;rotatable=0;points=[[0,0.5],[1,0.5]];portConstraint=eastwest;fontSize=12;whiteSpace=wrap;html=1;align=left;" vertex="1" parent="ZkUUD-Mt2sVkWkpbCQjQ-58">
          <mxGeometry y="240" width="160" height="30" as="geometry" />
        </mxCell>
        <mxCell id="ZkUUD-Mt2sVkWkpbCQjQ-67" value="" style="fontSize=12;html=1;endArrow=ERoneToMany;startArrow=ERmandOne;rounded=0;entryX=-0.001;entryY=0.045;entryDx=0;entryDy=0;entryPerimeter=0;" edge="1" parent="1" source="ZkUUD-Mt2sVkWkpbCQjQ-23" target="ZkUUD-Mt2sVkWkpbCQjQ-7">
          <mxGeometry width="100" height="100" relative="1" as="geometry">
            <mxPoint x="304" y="2350" as="sourcePoint" />
            <mxPoint x="364" y="2350" as="targetPoint" />
            <Array as="points">
              <mxPoint x="200" y="2190" />
              <mxPoint x="330" y="2190" />
              <mxPoint x="330" y="2240" />
            </Array>
          </mxGeometry>
        </mxCell>
        <mxCell id="ZkUUD-Mt2sVkWkpbCQjQ-69" value="" style="fontSize=12;html=1;endArrow=ERoneToMany;startArrow=ERmandOne;rounded=0;" edge="1" parent="1" source="ZkUUD-Mt2sVkWkpbCQjQ-32" target="ZkUUD-Mt2sVkWkpbCQjQ-7">
          <mxGeometry width="100" height="100" relative="1" as="geometry">
            <mxPoint x="-76" y="2400" as="sourcePoint" />
            <mxPoint x="366" y="2400" as="targetPoint" />
            <Array as="points" />
          </mxGeometry>
        </mxCell>
        <mxCell id="ZkUUD-Mt2sVkWkpbCQjQ-70" value="" style="fontSize=12;html=1;endArrow=ERoneToMany;startArrow=ERmandOne;rounded=0;" edge="1" parent="1" source="ZkUUD-Mt2sVkWkpbCQjQ-26" target="ZkUUD-Mt2sVkWkpbCQjQ-14">
          <mxGeometry width="100" height="100" relative="1" as="geometry">
            <mxPoint x="296" y="2530" as="sourcePoint" />
            <mxPoint x="-96" y="2370" as="targetPoint" />
          </mxGeometry>
        </mxCell>
        <mxCell id="ZkUUD-Mt2sVkWkpbCQjQ-71" value="" style="edgeStyle=entityRelationEdgeStyle;fontSize=12;html=1;endArrow=ERzeroToMany;startArrow=ERmandOne;rounded=0;entryX=0;entryY=0.5;entryDx=0;entryDy=0;fillColor=none;strokeColor=default;shadow=0;" edge="1" parent="1" source="ZkUUD-Mt2sVkWkpbCQjQ-11" target="ZkUUD-Mt2sVkWkpbCQjQ-45">
          <mxGeometry width="100" height="100" relative="1" as="geometry">
            <mxPoint x="508" y="2210" as="sourcePoint" />
            <mxPoint x="578" y="2210" as="targetPoint" />
          </mxGeometry>
        </mxCell>
        <mxCell id="ZkUUD-Mt2sVkWkpbCQjQ-72" value="" style="fontSize=12;html=1;endArrow=ERoneToMany;startArrow=ERmandOne;rounded=0;" edge="1" parent="1" source="ZkUUD-Mt2sVkWkpbCQjQ-11" target="ZkUUD-Mt2sVkWkpbCQjQ-15">
          <mxGeometry width="100" height="100" relative="1" as="geometry">
            <mxPoint x="350" y="2380" as="sourcePoint" />
            <mxPoint x="54" y="2260" as="targetPoint" />
          </mxGeometry>
        </mxCell>
        <mxCell id="ZkUUD-Mt2sVkWkpbCQjQ-73" value="" style="fontSize=12;html=1;endArrow=ERoneToMany;startArrow=ERmandOne;rounded=0;" edge="1" parent="1" source="ZkUUD-Mt2sVkWkpbCQjQ-23" target="ZkUUD-Mt2sVkWkpbCQjQ-32">
          <mxGeometry width="100" height="100" relative="1" as="geometry">
            <mxPoint x="125" y="2308" as="sourcePoint" />
            <mxPoint x="65" y="2318" as="targetPoint" />
          </mxGeometry>
        </mxCell>
        <mxCell id="ZkUUD-Mt2sVkWkpbCQjQ-74" value="" style="fontSize=12;html=1;endArrow=ERoneToMany;startArrow=ERmandOne;rounded=0;" edge="1" parent="1" source="ZkUUD-Mt2sVkWkpbCQjQ-39" target="ZkUUD-Mt2sVkWkpbCQjQ-8">
          <mxGeometry width="100" height="100" relative="1" as="geometry">
            <mxPoint x="76" y="2450" as="sourcePoint" />
            <mxPoint x="366" y="2481" as="targetPoint" />
            <Array as="points">
              <mxPoint x="560" y="2150" />
              <mxPoint x="560" y="2270" />
            </Array>
          </mxGeometry>
        </mxCell>
        <mxCell id="ZkUUD-Mt2sVkWkpbCQjQ-75" value="Tipo Facilidad" style="swimlane;fontStyle=0;childLayout=stackLayout;horizontal=1;startSize=26;horizontalStack=0;resizeParent=1;resizeParentMax=0;resizeLast=0;collapsible=1;marginBottom=0;align=center;fontSize=14;" vertex="1" parent="1">
          <mxGeometry x="580" y="2466" width="160" height="90" as="geometry" />
        </mxCell>
        <mxCell id="ZkUUD-Mt2sVkWkpbCQjQ-76" value="&lt;div&gt;&lt;u&gt;Cod facilidad&lt;/u&gt;&lt;/div&gt;" style="text;strokeColor=none;fillColor=none;spacingLeft=4;spacingRight=4;overflow=hidden;rotatable=0;points=[[0,0.5],[1,0.5]];portConstraint=eastwest;fontSize=12;whiteSpace=wrap;html=1;" vertex="1" parent="ZkUUD-Mt2sVkWkpbCQjQ-75">
          <mxGeometry y="26" width="160" height="34" as="geometry" />
        </mxCell>
        <mxCell id="ZkUUD-Mt2sVkWkpbCQjQ-77" value="&lt;div&gt;Descrip. Facilidad&lt;br/&gt;&lt;/div&gt;" style="text;strokeColor=none;fillColor=none;spacingLeft=4;spacingRight=4;overflow=hidden;rotatable=0;points=[[0,0.5],[1,0.5]];portConstraint=eastwest;fontSize=12;whiteSpace=wrap;html=1;" vertex="1" parent="ZkUUD-Mt2sVkWkpbCQjQ-75">
          <mxGeometry y="60" width="160" height="30" as="geometry" />
        </mxCell>
        <mxCell id="ZkUUD-Mt2sVkWkpbCQjQ-78" value="" style="fontSize=12;html=1;endArrow=ERmandOne;startArrow=ERmandOne;rounded=0;" edge="1" parent="1" source="ZkUUD-Mt2sVkWkpbCQjQ-75" target="ZkUUD-Mt2sVkWkpbCQjQ-41">
          <mxGeometry width="100" height="100" relative="1" as="geometry">
            <mxPoint x="764" y="2320" as="sourcePoint" />
            <mxPoint x="864" y="2220" as="targetPoint" />
          </mxGeometry>
        </mxCell>
        <mxCell id="ZkUUD-Mt2sVkWkpbCQjQ-80" value="" style="fontSize=12;html=1;endArrow=ERoneToMany;startArrow=ERmandOne;rounded=0;edgeStyle=orthogonalEdgeStyle;entryX=0.463;entryY=0;entryDx=0;entryDy=0;entryPerimeter=0;" edge="1" parent="1" source="ZkUUD-Mt2sVkWkpbCQjQ-7" target="ZkUUD-Mt2sVkWkpbCQjQ-50">
          <mxGeometry width="100" height="100" relative="1" as="geometry">
            <mxPoint x="264" y="2000" as="sourcePoint" />
            <mxPoint x="758" y="1970" as="targetPoint" />
            <Array as="points">
              <mxPoint x="490" y="2210" />
              <mxPoint x="880" y="2210" />
            </Array>
          </mxGeometry>
        </mxCell>
        <mxCell id="ZkUUD-Mt2sVkWkpbCQjQ-81" value="" style="fontSize=12;html=1;endArrow=ERoneToMany;startArrow=ERmandOne;rounded=0;edgeStyle=orthogonalEdgeStyle;" edge="1" parent="1" source="ZkUUD-Mt2sVkWkpbCQjQ-34" target="ZkUUD-Mt2sVkWkpbCQjQ-38">
          <mxGeometry width="100" height="100" relative="1" as="geometry">
            <mxPoint x="110" y="2320" as="sourcePoint" />
            <mxPoint x="130" y="2560" as="targetPoint" />
            <Array as="points" />
          </mxGeometry>
        </mxCell>
        <mxCell id="ZkUUD-Mt2sVkWkpbCQjQ-83" value="" style="fontSize=12;html=1;endArrow=ERmandOne;startArrow=ERmandOne;rounded=0;exitX=0.5;exitY=0;exitDx=0;exitDy=0;entryX=0.462;entryY=1.038;entryDx=0;entryDy=0;entryPerimeter=0;" edge="1" parent="1" source="ZkUUD-Mt2sVkWkpbCQjQ-47" target="ZkUUD-Mt2sVkWkpbCQjQ-57">
          <mxGeometry width="100" height="100" relative="1" as="geometry">
            <mxPoint x="850" y="2510" as="sourcePoint" />
            <mxPoint x="880" y="2500" as="targetPoint" />
          </mxGeometry>
        </mxCell>
        <mxCell id="ZkUUD-Mt2sVkWkpbCQjQ-85" value="" style="fontSize=12;html=1;endArrow=ERoneToMany;startArrow=ERmandOne;rounded=0;" edge="1" parent="1" source="ZkUUD-Mt2sVkWkpbCQjQ-29" target="ZkUUD-Mt2sVkWkpbCQjQ-15">
          <mxGeometry width="100" height="100" relative="1" as="geometry">
            <mxPoint x="320" y="2524" as="sourcePoint" />
            <mxPoint x="320" y="2490" as="targetPoint" />
          </mxGeometry>
        </mxCell>
        <mxCell id="ZkUUD-Mt2sVkWkpbCQjQ-86" value="" style="fontSize=12;html=1;endArrow=ERmandOne;startArrow=ERmandOne;rounded=0;" edge="1" parent="1" source="ZkUUD-Mt2sVkWkpbCQjQ-15" target="ZkUUD-Mt2sVkWkpbCQjQ-58">
          <mxGeometry width="100" height="100" relative="1" as="geometry">
            <mxPoint x="70" y="2469" as="sourcePoint" />
            <mxPoint x="70" y="2410" as="targetPoint" />
          </mxGeometry>
        </mxCell>
        <mxCell id="ZkUUD-Mt2sVkWkpbCQjQ-87" value="" style="fontSize=12;html=1;endArrow=ERoneToMany;startArrow=ERmandOne;rounded=0;exitX=0.874;exitY=1.004;exitDx=0;exitDy=0;exitPerimeter=0;" edge="1" parent="1" source="ZkUUD-Mt2sVkWkpbCQjQ-25">
          <mxGeometry width="100" height="100" relative="1" as="geometry">
            <mxPoint x="290" y="2118" as="sourcePoint" />
            <mxPoint x="580" y="2240" as="targetPoint" />
            <Array as="points">
              <mxPoint x="260" y="2180" />
              <mxPoint x="360" y="2180" />
              <mxPoint x="540" y="2180" />
              <mxPoint x="540" y="2240" />
            </Array>
          </mxGeometry>
        </mxCell>
        <mxCell id="ZkUUD-Mt2sVkWkpbCQjQ-88" value="" style="fontSize=12;html=1;endArrow=ERoneToMany;startArrow=ERmandOne;rounded=0;entryX=0.915;entryY=0;entryDx=0;entryDy=0;entryPerimeter=0;" edge="1" parent="1" source="ZkUUD-Mt2sVkWkpbCQjQ-23" target="ZkUUD-Mt2sVkWkpbCQjQ-58">
          <mxGeometry width="100" height="100" relative="1" as="geometry">
            <mxPoint x="290" y="2118" as="sourcePoint" />
            <mxPoint x="370" y="2118" as="targetPoint" />
            <Array as="points">
              <mxPoint x="30" y="2110" />
            </Array>
          </mxGeometry>
        </mxCell>
        <mxCell id="ZkUUD-Mt2sVkWkpbCQjQ-89" value="" style="fontSize=12;html=1;endArrow=ERoneToMany;startArrow=ERmandOne;rounded=0;entryX=0.601;entryY=0.001;entryDx=0;entryDy=0;entryPerimeter=0;exitX=0.5;exitY=0;exitDx=0;exitDy=0;" edge="1" parent="1" source="ZkUUD-Mt2sVkWkpbCQjQ-32" target="ZkUUD-Mt2sVkWkpbCQjQ-58">
          <mxGeometry width="100" height="100" relative="1" as="geometry">
            <mxPoint x="440" y="2036" as="sourcePoint" />
            <mxPoint x="-20" y="2151" as="targetPoint" />
            <Array as="points">
              <mxPoint x="440" y="2036" />
              <mxPoint x="-20" y="2036" />
            </Array>
          </mxGeometry>
        </mxCell>
        <mxCell id="ZkUUD-Mt2sVkWkpbCQjQ-90" value="" style="fontSize=12;html=1;endArrow=ERoneToMany;startArrow=ERmandOne;rounded=0;entryX=0.225;entryY=-0.001;entryDx=0;entryDy=0;entryPerimeter=0;" edge="1" parent="1" source="ZkUUD-Mt2sVkWkpbCQjQ-36" target="ZkUUD-Mt2sVkWkpbCQjQ-58">
          <mxGeometry width="100" height="100" relative="1" as="geometry">
            <mxPoint x="380" y="2027.5" as="sourcePoint" />
            <mxPoint x="-80" y="2220" as="targetPoint" />
            <Array as="points">
              <mxPoint x="680" y="2010" />
              <mxPoint x="-80" y="2013.5" />
            </Array>
          </mxGeometry>
        </mxCell>
        <mxCell id="ZkUUD-Mt2sVkWkpbCQjQ-91" value="" style="fontSize=12;html=1;endArrow=ERoneToMany;startArrow=ERmandOne;rounded=0;edgeStyle=orthogonalEdgeStyle;" edge="1" parent="1" source="ZkUUD-Mt2sVkWkpbCQjQ-7" target="ZkUUD-Mt2sVkWkpbCQjQ-58">
          <mxGeometry width="100" height="100" relative="1" as="geometry">
            <mxPoint x="70" y="2270" as="sourcePoint" />
            <mxPoint x="460" y="2240" as="targetPoint" />
            <Array as="points">
              <mxPoint x="400" y="2210" />
              <mxPoint x="70" y="2210" />
              <mxPoint x="70" y="2280" />
            </Array>
          </mxGeometry>
        </mxCell>
        <mxCell id="ZkUUD-Mt2sVkWkpbCQjQ-92" value="" style="fontSize=12;html=1;endArrow=ERoneToMany;startArrow=ERmandOne;rounded=0;" edge="1" parent="1">
          <mxGeometry width="100" height="100" relative="1" as="geometry">
            <mxPoint x="160" y="2151" as="sourcePoint" />
            <mxPoint x="160" y="2240" as="targetPoint" />
            <Array as="points" />
          </mxGeometry>
        </mxCell>
        <mxCell id="ZkUUD-Mt2sVkWkpbCQjQ-93" value="" style="fontSize=12;html=1;endArrow=ERoneToMany;startArrow=ERmandOne;rounded=0;entryX=1.004;entryY=0.042;entryDx=0;entryDy=0;entryPerimeter=0;" edge="1" parent="1" target="ZkUUD-Mt2sVkWkpbCQjQ-15">
          <mxGeometry width="100" height="100" relative="1" as="geometry">
            <mxPoint x="360" y="2130" as="sourcePoint" />
            <mxPoint x="280" y="2250" as="targetPoint" />
            <Array as="points">
              <mxPoint x="320" y="2130" />
              <mxPoint x="320" y="2250" />
            </Array>
          </mxGeometry>
        </mxCell>
        <mxCell id="ZkUUD-Mt2sVkWkpbCQjQ-94" value="" style="fontSize=12;html=1;endArrow=ERoneToMany;startArrow=ERmandOne;rounded=0;entryX=0.69;entryY=-0.001;entryDx=0;entryDy=0;entryPerimeter=0;exitX=0.25;exitY=0;exitDx=0;exitDy=0;" edge="1" parent="1" source="ZkUUD-Mt2sVkWkpbCQjQ-36" target="ZkUUD-Mt2sVkWkpbCQjQ-15">
          <mxGeometry width="100" height="100" relative="1" as="geometry">
            <mxPoint x="380" y="1950" as="sourcePoint" />
            <mxPoint x="300" y="2070" as="targetPoint" />
            <Array as="points">
              <mxPoint x="640" y="2000" />
              <mxPoint x="300" y="2000" />
              <mxPoint x="300" y="2220" />
              <mxPoint x="240" y="2220" />
            </Array>
          </mxGeometry>
        </mxCell>
        <mxCell id="ZkUUD-Mt2sVkWkpbCQjQ-95" value="" style="fontSize=12;html=1;endArrow=ERoneToMany;startArrow=ERmandOne;rounded=0;entryX=0.623;entryY=0.002;entryDx=0;entryDy=0;entryPerimeter=0;" edge="1" parent="1" source="ZkUUD-Mt2sVkWkpbCQjQ-36" target="ZkUUD-Mt2sVkWkpbCQjQ-41">
          <mxGeometry width="100" height="100" relative="1" as="geometry">
            <mxPoint x="580" y="2166" as="sourcePoint" />
            <mxPoint x="580" y="2230" as="targetPoint" />
            <Array as="points" />
          </mxGeometry>
        </mxCell>
        <mxCell id="ZkUUD-Mt2sVkWkpbCQjQ-96" value="" style="fontSize=12;html=1;endArrow=ERoneToMany;startArrow=ERmandOne;rounded=0;exitX=0.25;exitY=1.019;exitDx=0;exitDy=0;exitPerimeter=0;entryX=-0.002;entryY=0.132;entryDx=0;entryDy=0;entryPerimeter=0;" edge="1" parent="1" source="ZkUUD-Mt2sVkWkpbCQjQ-35" target="ZkUUD-Mt2sVkWkpbCQjQ-43">
          <mxGeometry width="100" height="100" relative="1" as="geometry">
            <mxPoint x="270" y="2161" as="sourcePoint" />
            <mxPoint x="590" y="2250" as="targetPoint" />
            <Array as="points">
              <mxPoint x="400" y="2190" />
              <mxPoint x="550" y="2190" />
              <mxPoint x="550" y="2220" />
              <mxPoint x="550" y="2290" />
            </Array>
          </mxGeometry>
        </mxCell>
        <mxCell id="ZkUUD-Mt2sVkWkpbCQjQ-97" value="" style="fontSize=12;html=1;endArrow=ERoneToMany;startArrow=ERmandOne;rounded=0;exitX=1.006;exitY=0.659;exitDx=0;exitDy=0;exitPerimeter=0;entryX=-0.005;entryY=0.315;entryDx=0;entryDy=0;entryPerimeter=0;" edge="1" parent="1" source="ZkUUD-Mt2sVkWkpbCQjQ-21" target="ZkUUD-Mt2sVkWkpbCQjQ-56">
          <mxGeometry width="100" height="100" relative="1" as="geometry">
            <mxPoint x="750" y="2730" as="sourcePoint" />
            <mxPoint x="-10" y="2905" as="targetPoint" />
            <Array as="points">
              <mxPoint x="320" y="2440" />
              <mxPoint x="320" y="2620" />
              <mxPoint x="760" y="2620" />
              <mxPoint x="760" y="2440" />
            </Array>
          </mxGeometry>
        </mxCell>
        <mxCell id="ZkUUD-Mt2sVkWkpbCQjQ-98" value="" style="fontSize=12;html=1;endArrow=ERoneToMany;startArrow=ERmandOne;rounded=0;entryX=1;entryY=-0.006;entryDx=0;entryDy=0;entryPerimeter=0;" edge="1" parent="1" source="ZkUUD-Mt2sVkWkpbCQjQ-23" target="ZkUUD-Mt2sVkWkpbCQjQ-51">
          <mxGeometry width="100" height="100" relative="1" as="geometry">
            <mxPoint x="800" y="1991" as="sourcePoint" />
            <mxPoint x="1000" y="2290" as="targetPoint" />
            <Array as="points">
              <mxPoint x="200" y="1960" />
              <mxPoint x="1000" y="1960" />
              <mxPoint x="1000" y="2280" />
            </Array>
          </mxGeometry>
        </mxCell>
        <mxCell id="ZkUUD-Mt2sVkWkpbCQjQ-99" value="" style="fontSize=12;html=1;endArrow=ERoneToMany;startArrow=ERmandOne;rounded=0;entryX=1.002;entryY=0.342;entryDx=0;entryDy=0;entryPerimeter=0;exitX=0.75;exitY=0;exitDx=0;exitDy=0;" edge="1" parent="1" source="ZkUUD-Mt2sVkWkpbCQjQ-32" target="ZkUUD-Mt2sVkWkpbCQjQ-52">
          <mxGeometry width="100" height="100" relative="1" as="geometry">
            <mxPoint x="486" y="2045" as="sourcePoint" />
            <mxPoint x="1252" y="2260" as="targetPoint" />
            <Array as="points">
              <mxPoint x="480" y="1980" />
              <mxPoint x="1040" y="1980" />
              <mxPoint x="1040" y="2320" />
            </Array>
          </mxGeometry>
        </mxCell>
        <mxCell id="ZkUUD-Mt2sVkWkpbCQjQ-100" value="" style="fontSize=12;html=1;endArrow=ERoneToMany;startArrow=ERmandOne;rounded=0;entryX=0.712;entryY=0.001;entryDx=0;entryDy=0;entryPerimeter=0;" edge="1" parent="1" source="ZkUUD-Mt2sVkWkpbCQjQ-38" target="ZkUUD-Mt2sVkWkpbCQjQ-50">
          <mxGeometry width="100" height="100" relative="1" as="geometry">
            <mxPoint x="720" y="2053" as="sourcePoint" />
            <mxPoint x="1486" y="2268" as="targetPoint" />
            <Array as="points">
              <mxPoint x="870" y="2120" />
              <mxPoint x="920" y="2120" />
              <mxPoint x="920" y="2200" />
            </Array>
          </mxGeometry>
        </mxCell>
        <mxCell id="ZkUUD-Mt2sVkWkpbCQjQ-101" value="" style="fontSize=12;html=1;endArrow=ERoneToMany;startArrow=ERmandOne;rounded=0;exitX=0.75;exitY=0;exitDx=0;exitDy=0;entryX=0.75;entryY=0;entryDx=0;entryDy=0;" edge="1" parent="1" source="ZkUUD-Mt2sVkWkpbCQjQ-23" target="ZkUUD-Mt2sVkWkpbCQjQ-36">
          <mxGeometry width="100" height="100" relative="1" as="geometry">
            <mxPoint x="210" y="2075" as="sourcePoint" />
            <mxPoint x="976" y="2290" as="targetPoint" />
            <Array as="points">
              <mxPoint x="240" y="1940" />
              <mxPoint x="720" y="1940" />
              <mxPoint x="720" y="2010" />
            </Array>
          </mxGeometry>
        </mxCell>
      </root>
    </mxGraphModel>
  </diagram>
</mxfile>
